<?xml version="1.0" standalone="yes"?>
<svg width="1252" height="1770">
<path style="fill:#000000; stroke:none;" d="M0 0L0 1770L1252 1770L1252 0L0 0z"/>
<path style="fill:#ffffff; stroke:none;" d="M858 323L872 325L872 326L863 330L863 331L912 332L912 331L906 328L906 327L932 327C916.1 309.79 876.252 309.401 858 323z"/>
<path style="fill:#181818; stroke:none;" d="M326 1111L341 1105L343.649 1088L349.892 1074L351 950L433 949.004L469.711 948.397L488 929L488 928L352 926L351.871 825L351 617L542 614L590 614L608.682 615.603L611 626L611 653C585.925 654.077 568.65 664.171 554.595 685C552.063 688.752 548.381 691.658 547 696L551 696C538.858 717.84 547.141 745.453 549 769L567 768C566.999 755.68 561.51 734.316 569.024 723.318C572.08 718.844 584.888 720.804 590 718.899C595.101 716.997 600.768 711.394 606 710.792C610.192 710.309 613.701 714.369 617.089 716.169C621.794 718.668 628.12 720.223 633.286 721.541C646.617 724.943 659.514 716.906 670 710C677.531 729.585 692.023 744.573 693 767L703 764C706.37 744.099 714.424 722.418 708.306 702.089C706.668 696.647 703.6 688.255 699.853 684.039C696.54 680.313 690.726 677.992 688.179 673.741C685.342 669.004 686.279 659.597 685 654L675 660L678 640L647 658L652 628L647 631L647 614C713.92 614 780.948 612 848 612C863.381 612 879.747 613.578 895 611.576C899.95 610.926 911.448 608.877 915.397 612.742C918.51 615.79 916.793 623.046 917.17 627C918.595 641.978 917.063 657.01 918.089 672C922.317 733.73 918 796.518 918 858C918 875.058 919 891.958 919 909C919 914.033 920.822 923.698 916.566 927.397C913.689 929.897 908.514 928.994 905 929C896.656 929.013 888.384 930 880 930C846.948 930 814.01 931 781 931C784.85 936.82 791.535 946.693 798.17 949.397C804.557 951.999 815.15 950 822 950C840.102 950 858.982 951.545 877 949.83C886.347 948.941 895.601 949 905 949C908.39 949 913.713 948.046 916.682 950.028C920.118 952.321 919 958.48 919 962C919 973.629 919.648 985.449 918.286 997C916.964 1008.2 918.454 1019.74 917.961 1031C916.467 1065.11 917 1098.88 917 1133L936 1132C933.71 1126.32 935 1120.05 935 1114L935 1077C935 1035.98 934 995.055 934 954C934 892.31 937.263 830.662 937.996 769C938.975 686.721 935 604.281 935 522C935 476.579 934.658 431.04 933.018 386C932.519 372.267 935.487 358.289 934.129 345C933.806 341.841 935.507 337.138 933.883 334.318C930.667 328.735 907.925 332 902 332C868.975 332 836.057 331 803 331C683.853 331 565.013 328 446 328C416.995 328 387.925 326.989 359 327C353.768 327.002 333.015 325.494 330.028 329.529C327.065 333.531 328.406 344.291 328.831 349C330.066 362.676 327.979 376.399 328.91 390C332.21 438.185 330 486.77 330 535C330 622.667 327.753 710.356 327.093 797.961C326.735 845.569 330.564 893.254 329.996 941C329.322 997.636 326 1054.25 326 1111z"/>
<path style="fill:#555555; stroke:none;" d="M864 331L864 332L868 332L864 331z"/>
<path style="fill:#8b8b8b; stroke:none;" d="M868 331L868 332L876 332L868 331z"/>
<path style="fill:#d5d5d5; stroke:none;" d="M902 331L902 332L906 332L902 331z"/>
<path style="fill:#ffffff; stroke:none;" d="M936 351L936 449C941.875 445.775 942.053 439.527 945.117 434.17C953.868 418.873 958.336 394.887 957.985 377C957.88 371.678 957.439 357.255 952.363 354.086C947.473 351.034 945.294 361.129 945 364L936 351z"/>
<path style="fill:#808080; stroke:none;" d="M935 352L935 356L936 356L935 352z"/>
<path style="fill:#2f2f2f; stroke:none;" d="M934 354L933 392L934 392L934 354z"/>
<path style="fill:#777979; stroke:none;" d="M355 362L355 363L378 363L355 362z"/>
<path style="fill:#4b5152; stroke:none;" d="M489 362L489 363L497 363L489 362z"/>
<path style="fill:#626262; stroke:none;" d="M934 362L934 393L935 393L934 362z"/>
<path style="fill:#7e8587; stroke:none;" d="M354 363L354 393L355 393L354 363z"/>
<path style="fill:#c0cccf; stroke:none;" d="M355 363L354 442L355 442L356 364L383 364L355 363z"/>
<path style="fill:#727373; stroke:none;" d="M383 363L383 364L430 364C417.824 358.89 396.265 363 383 363z"/>
<path style="fill:#9da0a0; stroke:none;" d="M430 363L430 364L444 364L430 363z"/>
<path style="fill:#565a5a; stroke:none;" d="M444 363L444 364L469 364L444 363z"/>
<path style="fill:#a7a8a8; stroke:none;" d="M469 363L469 364L514 364C502.299 359.09 481.742 363 469 363z"/>
<path style="fill:#747676; stroke:none;" d="M514 363L514 364L537 364L514 363z"/>
<path style="fill:#4e4f4f; stroke:none;" d="M757 363L757 364L911 364C899.068 358.993 877.991 363 865 363L757 363z"/>
<path style="fill:#e3f1f4; stroke:none;" d="M356 364L353 584L608 585L608 367L356 364z"/>
<path style="fill:#bfc8c8; stroke:none;" d="M383 364L383 365L430 365C417.824 359.891 396.265 364 383 364z"/>
<path style="fill:#bcc4c4; stroke:none;" d="M444 364L444 365L466 365L444 364z"/>
<path style="fill:#bfc8c8; stroke:none;" d="M516 364L516 365L537 365L516 364z"/>
<path style="fill:#8b8e8e; stroke:none;" d="M537 364L537 365L579 365C568.012 360.389 548.957 364 537 364z"/>
<path style="fill:#6f7171; stroke:none;" d="M579 364L579 365L587 365L579 364z"/>
<path style="fill:#505556; stroke:none;" d="M587 364L587 365L596 365L587 364z"/>
<path style="fill:#8b8e8e; stroke:none;" d="M647 364L647 365L757 365L724 364L647 364z"/>
<path style="fill:#abaeaf; stroke:none;" d="M757 364L757 365L911 365L911 377L912 377L912 364L757 364z"/>
<path style="fill:#929595; stroke:none;" d="M594 365L594 366L602 366L594 365z"/>
<path style="fill:#6c6f6f; stroke:none;" d="M602 365L602 366L609 366L602 365z"/>
<path style="fill:#787d7e; stroke:none;" d="M646 365L646 586L647 586L647 430L647 386L646 365z"/>
<path style="fill:#e3f1f4; stroke:none;" d="M647 365L648 498L649 498L651 483C662.064 482.877 667.77 475.025 674 467L676 470L678 467L677 465L681 464L679 461L684 457L688 454L690 456L692 451L697 452L705 441L707 442L708 439L710 441L712 436L715 437L728 427L736 417C741.139 416.754 744.52 411.166 747 407L745 407L774 378L779 379L778 376L784 375L791 371C791 363.41 813.667 366 819 366L911 366L887 365L833 365L647 365z"/>
<path style="fill:#bfc8c8; stroke:none;" d="M600 366L600 367L608 367L600 366z"/>
<path style="fill:#9da5a6; stroke:none;" d="M608 366L608 585L609 585L609 431L609 387L608 366z"/>
<path style="fill:#323434; stroke:none;" d="M609 366L609 585L610 585L610 431L610 387L609 366z"/>
<path style="fill:#f2f9fa; stroke:none;" d="M791 371L784 375L782 373L778 376L779 379L774 378L745 407L747 407L736 417L728 427L715 437L712 436C711.06 438.38 710.496 440.747 708 439L707 442L705 441L697 452L692 451L690 456L688 454L684 457L679 461L681 464L677 465L678 467L676 470L674 467C666.67 473.665 662.219 482.668 651 483L648.039 502L648 586L915 585L914.961 448L911 366L819 366C813.082 366 792.138 362.911 791 371z"/>
<path style="fill:#666b6b; stroke:none;" d="M912 372L912 377L913 377L912 372z"/>
<path style="fill:#feffff; stroke:none;" d="M666 399C675.243 396.412 688.067 383.764 692 375C684.5 376.209 668.579 391.685 666 399z"/>
<path style="fill:#3e3f3f; stroke:none;" d="M913 375L913 385L914 385L913 375z"/>
<path style="fill:#b3b3b3; stroke:none;" d="M935 376L935 386L936 386L935 376z"/>
<path style="fill:#9a9e9e; stroke:none;" d="M912 377L912 383L913 383L912 377z"/>
<path style="fill:#fdfefe; stroke:none;" d="M671 412C680.125 409.302 699.434 392.137 702 383C693.39 385.417 673.484 403.203 671 412z"/>
<path style="fill:#818686; stroke:none;" d="M913 385L913 412L914 412L913 385z"/>
<path style="fill:#808080; stroke:none;" d="M935 386L935 399L936 399L935 386z"/>
<path style="fill:#414242; stroke:none;" d="M914 389L914 420L915 420L914 389z"/>
<path style="fill:#000000; stroke:none;" d="M942 390C938.63 398.108 938.274 400.97 942 409L943 409L942 390z"/>
<path style="fill:#fefeff; stroke:none;" d="M390 414C397.789 411.976 416.538 399.913 419 392C410.834 393.491 392.161 406.082 390 414z"/>
<path style="fill:#feffff; stroke:none;" d="M389 436L401.004 426.63L432 403.971L445 393C430.226 394.934 411.599 412.901 400 421.888C395.134 425.659 389.978 429.66 389 436z"/>
<path style="fill:#484b4c; stroke:none;" d="M353 396L353 447L354 447C354 432.689 358.508 409.127 353 396z"/>
<path style="fill:#787878; stroke:none;" d="M934 405L934 434L935 434L934 405z"/>
<path style="fill:#393939; stroke:none;" d="M933 408L933 431L934 431L933 408z"/>
<path style="fill:#cfd4d5; stroke:none;" d="M913 412L913 423L914 423L913 412z"/>
<path style="fill:#878c8c; stroke:none;" d="M914 420L914 434L915 434L914 420z"/>
<path style="fill:#b9b9b9; stroke:none;" d="M935 422L935 434L936 434L935 422z"/>
<path style="fill:#434344; stroke:none;" d="M915 424L915 443L916 443L915 424z"/>
<path style="fill:#bcc1c2; stroke:none;" d="M914 434L914 444L915 444L914 434z"/>
<path style="fill:#919191; stroke:none;" d="M935 434L935 440L936 440L935 434z"/>
<path style="fill:#6a6a6a; stroke:none;" d="M935 440L935 445L936 445L935 440z"/>
<path style="fill:#646969; stroke:none;" d="M915 443L915 450L916 450L915 443z"/>
<path style="fill:#3f4040; stroke:none;" d="M916 446L916 491L917 491C917 478.258 920.91 457.701 916 446z"/>
<path style="fill:#7a8284; stroke:none;" d="M353 447L353 454L354 454L353 447z"/>
<path style="fill:#808080; stroke:none;" d="M936 449L936 454L937 454L936 449z"/>
<path style="fill:#a7acad; stroke:none;" d="M915 450L915 477L916 477L915 450z"/>
<path style="fill:#ffffff; stroke:none;" d="M937 453C932.678 467.623 937 487.671 937 503L938 503C947.903 487.983 951.012 466.901 937 453z"/>
<path style="fill:#c8d3d6; stroke:none;" d="M353 454L352 585L498 585L498 584L353 584C353.02 553.419 354 522.664 354 492C354 481.104 357.208 464.028 353 454z"/>
<path style="fill:#353737; stroke:none;" d="M352 457L352 493L353 493C353 482.613 356.011 466.56 352 457z"/>
<path style="fill:#5c5c5c; stroke:none;" d="M935 457L935 477L936 477L935 457z"/>
<path style="fill:#2c2c2c; stroke:none;" d="M934 461L934 495L935 495L934 461z"/>
<path style="fill:#c3c3c3; stroke:none;" d="M936 469L936 477L937 477L936 469z"/>
<path style="fill:#5f6161; stroke:none;" d="M915 477L915 515L916 515C916 504.089 919.211 487.036 915 477z"/>
<path style="fill:#838383; stroke:none;" d="M935 477L935 481L936 481L935 477z"/>
<path style="fill:#4b4b4b; stroke:none;" d="M935 481L935 496L936 496L935 481z"/>
<path style="fill:#9b9b9b; stroke:none;" d="M936 481L936 504L937 504L936 481z"/>
<path style="fill:#c4cbcc; stroke:none;" d="M914 488L914 517L915 517L914 488z"/>
<path style="fill:#c9d1d2; stroke:none;" d="M647 491L647 587L820 587L820 586L648 586L648 520L647 491z"/>
<path style="fill:#666d6e; stroke:none;" d="M352 513L352 530L353 530L352 513z"/>
<path style="fill:#7e898d; stroke:none;" d="M915 515L915 586L916 586L916 537L915 515z"/>
<path style="fill:#3e3f42; stroke:none;" d="M916 524L916 586L917 586L917 544L916 524z"/>
<path style="fill:#808789; stroke:none;" d="M352 530L352 548L353 548L352 530z"/>
<path style="fill:#98a2a3; stroke:none;" d="M352 548L352 565L353 565L352 548z"/>
<path style="fill:#363838; stroke:none;" d="M351 559L351 584L352 584L351 559z"/>
<path style="fill:#7c8787; stroke:none;" d="M352 585L352 586L498 586C486.544 581.193 466.468 585 454 585L352 585z"/>
<path style="fill:#9fabad; stroke:none;" d="M498 585L498 586L518 586L498 585z"/>
<path style="fill:#bbc2c3; stroke:none;" d="M540 585L540 586L566 586L540 585z"/>
<path style="fill:#9fa6a7; stroke:none;" d="M566 585L566 586L597 586L566 585z"/>
<path style="fill:#767b7b; stroke:none;" d="M597 585L597 586L609 586L597 585z"/>
<path style="fill:#bccacc; stroke:none;" d="M894 585L894 586L915 586L894 585z"/>
<path style="fill:#394141; stroke:none;" d="M352 586L352 587L498 587C486.544 582.193 466.468 586 454 586L352 586z"/>
<path style="fill:#525d5d; stroke:none;" d="M498 586L498 587L521 587L498 586z"/>
<path style="fill:#979fa0; stroke:none;" d="M521 586L521 587L532 587L521 586z"/>
<path style="fill:#64696a; stroke:none;" d="M522 587L522 588L566 587C553.871 581.911 534.914 586.991 522 587z"/>
<path style="fill:#535454; stroke:none;" d="M566 586L566 587L609 587C597.775 582.29 578.219 586 566 586z"/>
<path style="fill:#9ca9aa; stroke:none;" d="M820 586L820 587L887 587L866 586L820 586z"/>
<path style="fill:#505c5c; stroke:none;" d="M821 587L821 588L916 587C906.938 583.198 892.605 586.253 883 586.911C862.53 588.312 841.521 587 821 587z"/>
<path style="fill:#2f3031; stroke:none;" d="M524 588L524 589L566 588C554.356 583.114 536.386 587.992 524 588z"/>
<path style="fill:#606060; stroke:none;" d="M647 587L647 588L693 588C681.061 582.99 660.003 587 647 587z"/>
<path style="fill:#76797a; stroke:none;" d="M693 587L693 588L710 588L693 587z"/>
<path style="fill:#8e9494; stroke:none;" d="M710 587L710 588L767 588L749 587L710 587z"/>
<path style="fill:#6b6e6f; stroke:none;" d="M767 587L767 588L821 588L803 587L767 587z"/>
<path style="fill:#2f2f2f; stroke:none;" d="M647 588L647 589L713 589L692 588L647 588z"/>
<path style="fill:#454747; stroke:none;" d="M713 588L713 589L767 589L749 588L713 588z"/>
<path style="fill:#4c4c4c; stroke:none;" d="M895 611L895 612L915 612L895 611z"/>
<path style="fill:#3d3e3e; stroke:none;" d="M701 612L701 613L721 613L701 612z"/>
<path style="fill:#727575; stroke:none;" d="M721 612L721 613L769 613C756.586 607.791 734.526 612 721 612z"/>
<path style="fill:#595b5b; stroke:none;" d="M769 612L769 613L813 613C801.537 608.19 781.48 612 769 612z"/>
<path style="fill:#2c2e2f; stroke:none;" d="M813 612L813 613L847 613L813 612z"/>
<path style="fill:#67696b; stroke:none;" d="M847 612L847 613L890 613C878.775 608.289 859.219 612 847 612z"/>
<path style="fill:#9ea2a5; stroke:none;" d="M890 612L890 613L915 613L890 612z"/>
<path style="fill:#747e7f; stroke:none;" d="M915 612L915 620L916 620L915 612z"/>
<path style="fill:#2c2d2d; stroke:none;" d="M916 612L917 658L918 658C918 644.689 921.159 624.293 916 612z"/>
<path style="fill:#4a4c4c; stroke:none;" d="M681 613L681 614L695 614L681 613z"/>
<path style="fill:#727575; stroke:none;" d="M695 613L695 614L709 614L695 613z"/>
<path style="fill:#a7afb1; stroke:none;" d="M709 613L709 614L813 614L781 613L709 613z"/>
<path style="fill:#7f8789; stroke:none;" d="M813 613L813 614L843 614L813 613z"/>
<path style="fill:#b5babd; stroke:none;" d="M843 613L843 614L884 614C873.25 609.489 854.696 613 843 613z"/>
<path style="fill:#e3f1f4; stroke:none;" d="M648 616L648 629L652 628L652 627L649 627L649 617L756 616L782 616L790.941 618.13L785.96 624.674L770 640C768.02 646.379 751.838 651.437 756 659L756 660C747.359 665.393 735.921 673.934 731 683L728 682L715 698L712 694L711 694L710 698L708 698L705 689L704 689L710.535 711L711 744L710 744L710 734L709 734L703 766C717.8 773.129 706.475 792.054 699.089 800C689.959 809.823 687.156 820.39 679.571 831C667.405 848.016 644.776 862.629 658.789 887C662.954 894.242 667.22 894.045 674 896.972C693.691 905.473 713.049 904.687 734 908.286C741.492 909.573 751.241 912.14 758 915.609C765.954 919.691 771.861 926.215 781 927.571C795.737 929.758 811.253 927.376 826 927.015C856.252 926.274 886.797 926 917 926L915 613L648 616z"/>
<path style="fill:#444545; stroke:none;" d="M481 614L481 615L537 615L519 614L481 614z"/>
<path style="fill:#5a5d5e; stroke:none;" d="M537 614L537 615L609 615L586 614L537 614z"/>
<path style="fill:#4a4c4c; stroke:none;" d="M647 614L647 623L648 623L648 615L661 615L647 614z"/>
<path style="fill:#6e7172; stroke:none;" d="M661 614L661 615L678 615L661 614z"/>
<path style="fill:#a7afb0; stroke:none;" d="M678 614L678 615L709 615L678 614z"/>
<path style="fill:#d4dee1; stroke:none;" d="M770 614L770 615L878 615L845 614L770 614z"/>
<path style="fill:#4b4b4b; stroke:none;" d="M410 615L410 616L451 616C440.25 611.489 421.696 615 410 615z"/>
<path style="fill:#7f8383; stroke:none;" d="M451 615L451 616L503 616L486 615L451 615z"/>
<path style="fill:#9a9e9e; stroke:none;" d="M503 615L503 616L560 616L542 615L503 615z"/>
<path style="fill:#b9bfc0; stroke:none;" d="M560 615L560 616L609 616L609 633L610 633L610 615L560 615z"/>
<path style="fill:#a6aeaf; stroke:none;" d="M648 615L648 616L675 616L648 615z"/>
<path style="fill:#f2f9fa; stroke:none;" d="M649 617L649 627L652 627L648 657L658 653L658 652L651 654L651 653L679 639L676 659L682 652L684 652L689.028 674.447L708 698L710 698L711 694L712 694L715 698L728 682L731 683L756 660L756 659C754.961 649.586 768.365 648.366 770 640C778.016 636.484 781.174 629.341 787.589 624C789.408 622.485 793.724 619.453 790.508 617.023C787.971 615.107 782.975 616 780 616L753 616C718.385 615.987 683.649 617 649 617z"/>
<path style="fill:#464a4a; stroke:none;" d="M376 616L376 617L396 617L376 616z"/>
<path style="fill:#696969; stroke:none;" d="M396 616L396 617L413 617L396 616z"/>
<path style="fill:#b1b4b7; stroke:none;" d="M393 617L393 618L489 617L460 616L393 617z"/>
<path style="fill:#f2f8f9; stroke:none;" d="M353 620L352 924L481 923C488.944 911.816 508.866 914.424 516 904C521.492 904.119 525.685 900.513 531 899.468C544.809 896.751 565.944 897.449 572.786 882C577.277 871.86 572.545 862.235 573 852L571 847C564.771 847.103 557.965 832.091 558 826L554 826C552.05 817.776 545.034 810.958 541.823 803C534.178 784.057 529.091 760.28 530 740L527 722L529.602 713L530.806 692.019L538 675L568.089 646.515L595 637.245L607.972 634.394L609 616L421 617.015L353 620z"/>
<path style="fill:#3e3e3e; stroke:none;" d="M610 616L610 633L611 633L610 616z"/>
<path style="fill:#4a4a4a; stroke:none;" d="M351 617L351 618L365 618L351 617z"/>
<path style="fill:#696b6c; stroke:none;" d="M365 617L365 618L376 618L365 617z"/>
<path style="fill:#8a9193; stroke:none;" d="M376 617L376 618L393 618L376 617z"/>
<path style="fill:#a6a9ac; stroke:none;" d="M351 618L351 625L352 625L352 619L379 619L351 618z"/>
<path style="fill:#f2f9fa; stroke:none;" d="M485 624L486 627C480.007 630.183 467.812 636.805 467 644L459 645L459 649L459 650L449 653L451 656C445.848 657.067 434.893 660.903 435 667L422 672L419 679L407 682L407 683L409 685C405.509 686.201 403.662 687.319 403 691L399 690L401 692L401 693L394 694L392 701L369 715L372 718L372 719C368.475 720.949 354.249 724.861 359 731L354 734L354 735C356.402 736.887 358.237 742.453 354 743L353.058 756.015L355 775L358 779L357 779L357 776L356 776L354 779L355 782L357 782L357 795L360 799L357 798L356 804L356.285 848L357 872L360 884L358 884L360 887L357 888L360 889L360 890L358 891L361 908C357.682 922.308 370.577 920.681 381 919.938C385.623 919.608 392.178 921.245 395 917L396 917L396 920L399 917L407 918C408.491 915.913 409.677 916.499 410 919L435 916L435 919L439 919L439 918L437 916L444 916L453 917L453 918L448 918L448 919C454.153 918.979 461.763 915.033 467 919L468 919L472 914L476 915C479.087 909.809 487.809 904.193 494 903.333C496.722 902.955 499.23 904.67 502 903.667C505.607 902.36 508.23 894.361 512 897L523 880L525 882L529 873L532 873L534 871L535 871C535.522 867.998 535.695 865.503 539 865L543 860L542 856L548 854L547 850L557.096 841.871L552.575 832.986L535 809L533 823C526.373 826.395 515.834 840.076 513 847L511 845C508.041 850.047 503.039 853.955 497 854L495 855L494 855L493 858L485 856L478 858C475.364 853.386 470.664 853.626 466.004 851.996C452.466 847.262 430.259 850.174 421.937 836.093C417.228 828.125 426.862 811.358 431.489 805C444.717 786.826 461.275 772.778 475.05 754.804C479.059 749.574 487.308 743.742 488 737C496.043 734.609 505.812 719.188 512 713C513.878 711.122 520.327 701.782 521 707L522 707C522 701.478 520.783 694.314 522.333 689C527.905 669.898 550.124 644.608 568 636.167C581.345 629.865 597.653 631.463 607 619C594.506 616.025 579.812 618 567 618C540.954 618 508.883 612.641 485 624z"/>
<path style="fill:#d0dee1; stroke:none;" d="M352 619L351 757L352 757L353 620L374 620L352 619z"/>
<path style="fill:#000000; stroke:none;" d="M643 620L641 636C647.336 632.804 646 626.201 646 620L643 620z"/>
<path style="fill:#a0a8aa; stroke:none;" d="M915 620L915 629L916 629L915 620z"/>
<path style="fill:#7f8282; stroke:none;" d="M647 623L647 631L648 631L647 623z"/>
<path style="fill:#4c5051; stroke:none;" d="M351 625L351 647L352 647L351 625z"/>
<path style="fill:#cdd9dc; stroke:none;" d="M915 629L915 652L916 652L915 629z"/>
<path style="fill:#585856; stroke:none;" d="M651 631L651 636L652 636L651 631z"/>
<path style="fill:#677173; stroke:none;" d="M916 632L916 658L917 658L916 632z"/>
<path style="fill:#e6ecec; stroke:none;" d="M609 633L594 637.245L568.089 646.054L538 675L530 691L531 697L530 713L527 722L530 740L532.817 765L543.12 807L554 826L558 826C557.637 832.346 564.243 847.519 571 847L573 852C571.15 861.354 576.908 870.256 573.185 880C566.684 897.018 544.75 896.566 530 899.468C525.075 900.436 521.03 903.81 516 904C506.9 912.802 486.832 910.668 481 923L476 924L476 925C481.345 925 487.876 926.004 493 924.298C503.425 920.826 511.945 913.781 523 911.004C544.703 905.552 575.632 911.243 593.61 895.44C603.711 886.56 604.944 862.094 598.633 851C593.419 841.835 584.197 835.164 578.615 826C576.039 821.771 574.365 816.177 571.034 812.509C563.861 804.61 553.803 798.31 548.92 788C545.384 780.536 549.619 774.463 548.557 767C547.153 757.132 546.676 746.734 544.625 737C543.081 729.672 539.974 723.783 541.329 716C542.544 709.021 547.068 703.273 550 697C543.975 692.773 556.732 681.778 559.804 678C574.668 659.719 585.986 651 610 651L609 633z"/>
<path style="fill:#7b7e7e; stroke:none;" d="M610 633L610 653L611 653L610 633z"/>
<path style="fill:#fefeff; stroke:none;" d="M377 672C387.581 669.03 397.476 655.003 406.039 647.985C409.958 644.774 414.48 641.988 416 637C405.538 639.489 398.125 651.062 389.91 657.446C384.633 661.548 378.642 665.161 377 672z"/>
<path style="fill:#6f6e6c; stroke:none;" d="M650.333 638.667L650.667 639.333L650.333 638.667z"/>
<path style="fill:#939593; stroke:none;" d="M677 639L678 649L679 649L677 639z"/>
<path style="fill:#9b9897; stroke:none;" d="M676 640L677 641L676 640z"/>
<path style="fill:#888d8c; stroke:none;" d="M649.333 642.667L649.667 643.333L649.333 642.667z"/>
<path style="fill:#979695; stroke:none;" d="M674 642L675 643L674 642z"/>
<path style="fill:#c5c9c9; stroke:none;" d="M651 653L651 654L667 648L651 653z"/>
<path style="fill:#979b9c; stroke:none;" d="M647 649L647 658L648 658L647 649z"/>
<path style="fill:#babdbe; stroke:none;" d="M589 652L589 653L592 653L592 654L575 661L575 662L610 653L610 651L589 652z"/>
<path style="fill:#46433f; stroke:none;" d="M626 653L626 654L631 651L626 653z"/>
<path style="fill:#7f807f; stroke:none;" d="M593 652L593 653L597 653L593 652z"/>
<path style="fill:#6f6d6b; stroke:none;" d="M676.333 652.667L676.667 653.333L676.333 652.667z"/>
<path style="fill:#b6bab9; stroke:none;" d="M682.667 652.333L683.333 652.667L682.667 652.333z"/>
<path style="fill:#6a6b68; stroke:none;" d="M576 660L592 654C586.326 651.691 579.67 655.718 576 660z"/>
<path style="fill:#676664; stroke:none;" d="M602 653L602 654L606 654L602 653z"/>
<path style="fill:#4e4c49; stroke:none;" d="M681 655L684 654L681 655z"/>
<path style="fill:#71716f; stroke:none;" d="M685.333 655.667L685.667 656.333L685.333 655.667z"/>
<path style="fill:#a2a6a6; stroke:none;" d="M675 657L677 660L675 657z"/>
<path style="fill:#9ea1a0; stroke:none;" d="M686 657L686 660L687 660L686 657z"/>
<path style="fill:#9fa6a8; stroke:none;" d="M916 658L916 672L917 672L916 658z"/>
<path style="fill:#3f4446; stroke:none;" d="M917 658L918 747L919 747L919 687L917 658z"/>
<path style="fill:#8f9191; stroke:none;" d="M571 665L576 660L571 665z"/>
<path style="fill:#585d5f; stroke:none;" d="M350 661L350 672L351 672L350 661z"/>
<path style="fill:#878987; stroke:none;" d="M687 661L687 665L688 665L687 661z"/>
<path style="fill:#676866; stroke:none;" d="M568 669L572 665L568 669z"/>
<path style="fill:#4f4f4c; stroke:none;" d="M687 665L687 674L688 674L687 665z"/>
<path style="fill:#36332f; stroke:none;" d="M675 668L671 671L671 672L675 668z"/>
<path style="fill:#5b5855; stroke:none;" d="M567 676L574 670L567 676z"/>
<path style="fill:#798082; stroke:none;" d="M350 672L350 703L351 703L350 672z"/>
<path style="fill:#c6d2d4; stroke:none;" d="M916 672L916 684L917 684L916 672z"/>
<path style="fill:#4c4a46; stroke:none;" d="M688.667 675.333L689.333 675.667L688.667 675.333z"/>
<path style="fill:#c2c8c7; stroke:none;" d="M692 677L696 680L692 677z"/>
<path style="fill:#788184; stroke:none;" d="M917 678L917 689L918 689L917 678z"/>
<path style="fill:#494544; stroke:none;" d="M555 683L548 693L555 683z"/>
<path style="fill:#949695; stroke:none;" d="M699 683L700 684L699 683z"/>
<path style="fill:#c3c8c9; stroke:none;" d="M703 688L703 692L704 692L703 688z"/>
<path style="fill:#bac4c6; stroke:none;" d="M917 689L917 714L918 714L917 689z"/>
<path style="fill:#5f5c59; stroke:none;" d="M693 693L698 705L699 705L693 693z"/>
<path style="fill:#53514f; stroke:none;" d="M705.333 695.667L705.667 696.333L705.333 695.667z"/>
<path style="fill:#939595; stroke:none;" d="M547 696L547 697L551 698L547 696z"/>
<path style="fill:#535451; stroke:none;" d="M706.333 697.667L706.667 698.333L706.333 697.667z"/>
<path style="fill:#5a5857; stroke:none;" d="M548 700L547 703L548 700z"/>
<path style="fill:#696764; stroke:none;" d="M688 701L691 709L692 709L688 701z"/>
<path style="fill:#525758; stroke:none;" d="M350 703L350 724L351 724L350 703z"/>
<path style="fill:#636361; stroke:none;" d="M546 703L541 724L542 724L546 703z"/>
<path style="fill:#474440; stroke:none;" d="M589 704L582 710L582 711C585.49 709.809 589.086 708.028 589 704z"/>
<path style="fill:#9a9f9e; stroke:none;" d="M709.333 706.667L709.667 707.333L709.333 706.667z"/>
<path style="fill:#433f3c; stroke:none;" d="M597 707L593 713L597 707z"/>
<path style="fill:#4b4845; stroke:none;" d="M629 708L629 709L639 711L639 710L634 710L634 709L636 709L629 708z"/>
<path style="fill:#433f3c; stroke:none;" d="M692 708L692 712L693 712L692 708z"/>
<path style="fill:#413e3b; stroke:none;" d="M550 709L548 718L549 718L550 709z"/>
<path style="fill:#e99677; stroke:none;" d="M569 721L567.004 754L566.393 766.538L557.015 765.375L549 769C547.337 778.821 544.509 794.907 559 796L559 795C551.129 790.819 543.61 775.023 555.329 769.897C558.95 768.314 564.252 770.516 568 771C570.354 758.322 563.847 740.148 569.858 728.344C572.002 724.135 577.148 725.333 580.985 724.812C589.741 723.623 599.251 713.1 608 713.788C613.796 714.243 617.802 719.663 624 720C620.416 717.03 610.625 709.882 606 710.102C601.798 710.302 596.721 715.411 593 717.356C585.493 721.281 577.286 722.537 569 721z"/>
<path style="fill:#747270; stroke:none;" d="M634 709L634 710L639 710L634 709z"/>
<path style="fill:#574740; stroke:none;" d="M668.667 710.333L669.333 710.667L668.667 710.333z"/>
<path style="fill:#bac1c2; stroke:none;" d="M710 710L710 717L711 717L710 710z"/>
<path style="fill:#565451; stroke:none;" d="M622 711L622 712L631 714L631 713L622 711z"/>
<path style="fill:#feb799; stroke:none;" d="M568 771C564.227 770.268 559.114 768.263 555.329 769.529C546.415 772.508 548.902 785.327 552.954 790.896C557.393 796.995 564.993 795.347 569.486 800.303C574.089 805.381 574.754 815.782 578.453 822C585.311 833.529 599.129 843.28 603.095 856C606.095 865.621 603.466 878.735 600.333 888C598.439 893.6 593.649 898.819 599.063 903.772C611.933 915.542 640.64 910.594 655 904.947C661.492 902.394 668.097 897.903 675 897L675 896C651.317 895.786 647.001 867.718 657.559 851C663.961 840.863 674.69 834.724 680.651 824C684.459 817.151 683.475 808.484 687.419 802.059C690.855 796.461 699.118 796.524 703.468 790.985C712.504 779.475 710.377 761.579 693 767C692.629 754.233 683.743 734.258 677.684 723C675.834 719.562 673.399 712.605 668.91 711.907C665.287 711.343 661.002 715.705 658 717.309C652.034 720.497 642.839 723.823 636 722.621C630.881 721.721 623.908 720.964 619.17 718.951C615.224 717.274 611.595 713.064 607 713.412C599.51 713.98 590.798 720.978 583.83 723.812C579.966 725.383 573.133 723.504 570.318 726.894C567.87 729.841 569.168 735.454 568.83 739C567.807 749.75 569.343 760.374 568 771z"/>
<path style="fill:#625f5d; stroke:none;" d="M588 714L588 715L593 712L588 714z"/>
<path style="fill:#4b3b32; stroke:none;" d="M611 712L614 714L611 712z"/>
<path style="fill:#dde3e4; stroke:none;" d="M543 713L543 730L544 730L543 713z"/>
<path style="fill:#454643; stroke:none;" d="M544 713L544 722L545 722L544 713z"/>
<path style="fill:#a4acae; stroke:none;" d="M917 714L917 746L918 746L917 714z"/>
<path style="fill:#41403c; stroke:none;" d="M710 717L709 731C712.259 728.152 711.58 720.766 710 717z"/>
<path style="fill:#755649; stroke:none;" d="M590.667 718.333L591.333 718.667L590.667 718.333z"/>
<path style="fill:#5e453a; stroke:none;" d="M622.667 718.333L623.333 718.667L622.667 718.333z"/>
<path style="fill:#745c52; stroke:none;" d="M655.667 718.333L656.333 718.667L655.667 718.333z"/>
<path style="fill:#3f3027; stroke:none;" d="M624 719L624 720L632 721L624 719z"/>
<path style="fill:#6f5549; stroke:none;" d="M583 720L583 721L586 721L583 720z"/>
<path style="fill:#554740; stroke:none;" d="M649 720L649 721L652 721L649 720z"/>
<path style="fill:#44413e; stroke:none;" d="M681 720L687 731L688 731C687.362 726.221 685.194 722.466 681 720z"/>
<path style="fill:#57443c; stroke:none;" d="M571 721L571 722L580 722L571 721z"/>
<path style="fill:#9ea09f; stroke:none;" d="M544 722L544 727L545 727L544 722z"/>
<path style="fill:#926955; stroke:none;" d="M568 722L568 726L569 726L568 722z"/>
<path style="fill:#9b6c5c; stroke:none;" d="M634 722L634 723L643 723L634 722z"/>
<path style="fill:#84685b; stroke:none;" d="M677 722L679 725L677 722z"/>
<path style="fill:#939a9b; stroke:none;" d="M711 723L710 744L711 744L711 723z"/>
<path style="fill:#c5cac8; stroke:none;" d="M541 724L544 736L545 736L545 727L544 727L544 730L543 730L541 724z"/>
<path style="fill:#8d695b; stroke:none;" d="M680.333 727.667L680.667 728.333L680.333 727.667z"/>
<path style="fill:#434444; stroke:none;" d="M350 728L350 734L351 734L350 728z"/>
<path style="fill:#a9745c; stroke:none;" d="M567 729L567 733L568 733L567 729z"/>
<path style="fill:#41352e; stroke:none;" d="M682 731L685 739L686 739L682 731z"/>
<path style="fill:#696a67; stroke:none;" d="M545 733L545 738L546 738L545 733z"/>
<path style="fill:#cd8669; stroke:none;" d="M682 733L683 737L684 737L682 733z"/>
<path style="fill:#ffffff; stroke:none;" d="M326 734C316.443 752.24 306.616 781.952 327 797L327 754L326 734z"/>
<path style="fill:#8f9496; stroke:none;" d="M350 734L350 751L351 751L350 734z"/>
<path style="fill:#a06b56; stroke:none;" d="M566 734L566 758L567 758L566 734z"/>
<path style="fill:#3b3b3b; stroke:none;" d="M327 735L327 743L328 743L327 735z"/>
<path style="fill:#d88669; stroke:none;" d="M684 737L690 757L691 757L684 737z"/>
<path style="fill:#adb1b0; stroke:none;" d="M545 738L545 744L546 744L545 738z"/>
<path style="fill:#5a4236; stroke:none;" d="M591 738L591 739L604 739L591 738z"/>
<path style="fill:#b6846d; stroke:none;" d="M652 738L652 739L655 739L652 738z"/>
<path style="fill:#60473b; stroke:none;" d="M655 738L655 739L663 739L655 738z"/>
<path style="fill:#5c4337; stroke:none;" d="M586 740L586 741L591 740L586 740z"/>
<path style="fill:#1a1612; stroke:none;" d="M577 752C581.431 751.807 585.599 750.413 590 750.09C593.326 749.846 596.671 750.129 600 749.96C604.322 749.741 613.495 744.737 606.682 740.179C597.501 734.036 578.555 741.379 577 752M676 750C675.209 739.719 656.002 734.39 648.318 740.742C642.532 745.525 648.5 751.181 654.001 750.906C657.02 750.755 659.966 750.089 663 750.015C667.329 749.909 671.67 750 676 750z"/>
<path style="fill:#906756; stroke:none;" d="M609 742L609 746L610 746L609 742z"/>
<path style="fill:#666666; stroke:none;" d="M327 743L327 750L328 750L327 743z"/>
<path style="fill:#bb8871; stroke:none;" d="M645 744L645 748L646 748L645 744z"/>
<path style="fill:#825f51; stroke:none;" d="M676 746L676 750L665 750L665 751L678 751L676 746z"/>
<path style="fill:#7c878a; stroke:none;" d="M917 746L917 796L918 796C918 781.951 922.409 758.889 917 746z"/>
<path style="fill:#666967; stroke:none;" d="M706.333 747.667L706.667 748.333L706.333 747.667z"/>
<path style="fill:#8f908f; stroke:none;" d="M546 749L546 754L547 754L546 749z"/>
<path style="fill:#7c5a4b; stroke:none;" d="M604.667 749.333L605.333 749.667L604.667 749.333z"/>
<path style="fill:#d8d8d8; stroke:none;" d="M327 750L327 765L328 765L327 750z"/>
<path style="fill:#412f29; stroke:none;" d="M586 750L586 751L601 751L586 750z"/>
<path style="fill:#886151; stroke:none;" d="M601 750L601 751L604 751L601 750z"/>
<path style="fill:#5f4639; stroke:none;" d="M657 750L657 751L665 751L657 750z"/>
<path style="fill:#595a58; stroke:none;" d="M705 750L705 753L706 753L705 750z"/>
<path style="fill:#747778; stroke:none;" d="M350 751L350 759L351 759L350 751z"/>
<path style="fill:#b78069; stroke:none;" d="M582 751L582 752L599 752L582 751z"/>
<path style="fill:#cc937b; stroke:none;" d="M649 751L649 752L678 752L649 751z"/>
<path style="fill:#53524f; stroke:none;" d="M547 756L547 759L548 759L547 756z"/>
<path style="fill:#b4babb; stroke:none;" d="M351 757L351 774L352 774L351 757z"/>
<path style="fill:#855945; stroke:none;" d="M691 757L691 760L692 760L691 757z"/>
<path style="fill:#f4a181; stroke:none;" d="M649 764L677 763C671.841 755.605 653.344 756.045 649 764z"/>
<path style="fill:#878886; stroke:none;" d="M547 759L547 762L548 762L547 759z"/>
<path style="fill:#323333; stroke:none;" d="M918 759L918 797L919 797C919 786.089 922.211 769.036 918 759z"/>
<path style="fill:#a06750; stroke:none;" d="M567 760L567 767L568 767L567 760z"/>
<path style="fill:#6b6e6b; stroke:none;" d="M703.333 760.667L703.667 761.333L703.333 760.667z"/>
<path style="fill:#5b5855; stroke:none;" d="M548 764L548 767L549 767L548 764z"/>
<path style="fill:#aa7d6c; stroke:none;" d="M585 764L585 765L593 765L585 764z"/>
<path style="fill:#83756c; stroke:none;" d="M699 764L699 765L703 765L699 764z"/>
<path style="fill:#929292; stroke:none;" d="M327.333 765.667L327.667 766.333L327.333 765.667z"/>
<path style="fill:#6e5d57; stroke:none;" d="M587 786L587 785L583 779L580 780C572.738 754.773 617.57 772.997 601 782L601 776L600 776L599 785C615.019 782.074 606.764 767.737 595 765.379C578.276 762.027 568.469 779.837 587 786z"/>
<path style="fill:#6e5044; stroke:none;" d="M657 765L657 766L675 769C669.814 764.856 663.351 765.001 657 765z"/>
<path style="fill:#423a34; stroke:none;" d="M653 769L661 767C657.743 765.674 655.056 766.09 653 769z"/>
<path style="fill:#505050; stroke:none;" d="M327 767L327 775L328 775L327 767z"/>
<path style="fill:#d1d0d0; stroke:none;" d="M585 767L585 768L598 769L585 767z"/>
<path style="fill:#efeeee; stroke:none;" d="M652 780C654.698 768.653 668.941 765.664 671 779C687.476 762.848 636.842 764.908 652 780z"/>
<path style="fill:#978d87; stroke:none;" d="M667.667 767.333L668.333 767.667L667.667 767.333z"/>
<path style="fill:#5b4b42; stroke:none;" d="M563 768L563 769L566 769L563 768z"/>
<path style="fill:#fdfdfd; stroke:none;" d="M580 780L582 780C586.368 768.233 598.875 767.866 602 781C606.578 778.473 606.43 773.96 601.941 771.008C593.712 765.597 574.255 766.147 580 780z"/>
<path style="fill:#645853; stroke:none;" d="M652 768C646.06 774.429 646.588 781.033 655 785L654 780L651 781C649.509 775.666 651.021 773.456 654 769L652 768z"/>
<path style="fill:#847b79; stroke:none;" d="M659 769L659 770L664 770L659 769z"/>
<path style="fill:#322923; stroke:none;" d="M673 769L675 775L676 775L676 769L673 769z"/>
<path style="fill:#b7b3b1; stroke:none;" d="M588 770L588 771L594 771L588 770z"/>
<path style="fill:#6e625f; stroke:none;" d="M654 775L663 771L662 776L663 776L664 772L668 772C663.201 768.364 656.702 769.642 654 775z"/>
<path style="fill:#a47563; stroke:none;" d="M676 770L676 775L677 775L676 770z"/>
<path style="fill:#8d8786; stroke:none;" d="M583 776L588 771L583 776z"/>
<path style="fill:#5f5654; stroke:none;" d="M587 772L587 773L595 773L587 772z"/>
<path style="fill:#a39d9b; stroke:none;" d="M595 771L593 777L594 777L594 774L597 774L597 777L598 777L600 776L595 771z"/>
<path style="fill:#35201a; stroke:none;" d="M663 786L663 785C659.31 784.397 655.248 778.219 661.005 778.461C664.113 778.593 665.938 783.008 669 784L669 772L667 772C665.54 776.701 662.588 775.662 663 771C650.771 771.914 650.436 785.955 663 786z"/>
<path style="fill:#ac7962; stroke:none;" d="M575 772L575 777L576 777L575 772z"/>
<path style="fill:#40261e; stroke:none;" d="M599 775L594 778L595 785C587.996 784.772 584.499 777.374 593 777L594 772C591.973 772.094 589.93 772.113 588.015 772.893C571.534 779.607 599.713 795.268 599.922 780.02C599.947 778.187 599.51 776.73 599 775z"/>
<path style="fill:#d1cbc9; stroke:none;" d="M664 772L663 777C666.036 776 666.494 775.137 666 772L664 772z"/>
<path style="fill:#735a4e; stroke:none;" d="M674 772L671 781L670 781L670 773L669 773L669 784C673.692 781.433 676.93 777.18 674 772z"/>
<path style="fill:#ea8c67; stroke:none;" d="M694 789L696 789L699 779C699.015 783.15 698.613 786.544 703 788L702 772C693.762 774.363 694 781.771 694 789z"/>
<path style="fill:#e89876; stroke:none;" d="M708 773C707.992 784.914 702.511 797.298 689 798L689 799C704.898 798.868 710 787.254 710 773L708 773z"/>
<path style="fill:#737475; stroke:none;" d="M351 774L351 799L352 799L351 774z"/>
<path style="fill:#ec8f6a; stroke:none;" d="M557 774C557.587 779.497 555.501 785.787 561 789L561 781L562 781L566 790C565.686 782.705 564.3 776.854 557 774z"/>
<path style="fill:#dcd9d9; stroke:none;" d="M594 774L594 778L597 778L597 774L594 774z"/>
<path style="fill:#b6b2b0; stroke:none;" d="M670 774L670 781L671 781L670 774z"/>
<path style="fill:#aaaaaa; stroke:none;" d="M327 775L327 785L328 785L327 775z"/>
<path style="fill:#9b9796; stroke:none;" d="M606 775L606 778L607 778L606 775z"/>
<path style="fill:#010000; stroke:none;" d="M595 785C594.61 768.923 579.727 784.819 595 785z"/>
<path style="fill:#c6c2c1; stroke:none;" d="M652 776L651 781L652 776z"/>
<path style="fill:#c6c3c2; stroke:none;" d="M601 777C601.064 779.993 600.946 781.346 604 782L604 781L601 777z"/>
<path style="fill:#f4a181; stroke:none;" d="M634 796L628 796L628 777C621.854 780.216 613.725 795.091 619.893 801.397C624.818 806.43 633.517 802.115 634 796z"/>
<path style="fill:#000000; stroke:none;" d="M666 785C662.951 771.318 650.937 784.947 666 785z"/>
<path style="fill:#cbd4d5; stroke:none;" d="M352 779L352 800L353 800L352 779z"/>
<path style="fill:#b6836e; stroke:none;" d="M657 786L657 787L672 784L657 786z"/>
<path style="fill:#a06f5c; stroke:none;" d="M587 786L587 787L598 787L587 786z"/>
<path style="fill:#e6d5c9; stroke:none;" d="M706 790L699 800C702.362 797.623 706.902 794.498 706 790z"/>
<path style="fill:#948279; stroke:none;" d="M556.333 796.667L556.667 797.333L556.333 796.667z"/>
<path style="fill:#1a1612; stroke:none;" d="M557 796C558.374 801.781 562.216 806.376 568 808L568 800L557 796z"/>
<path style="fill:#cfdcde; stroke:none;" d="M917 796L917 844L918 844C918 830.474 922.209 808.414 917 796z"/>
<path style="fill:#eb9675; stroke:none;" d="M560 797L560 798C565.893 799.63 571.297 803.312 568 810L568 811C573.953 814.378 576.212 823.372 579.865 829C591.836 847.44 607.076 856.733 600.074 881C598.224 887.411 596.004 894.987 589 897L589 898L598 903C594.562 894.51 603.738 878.088 603.985 868C604.51 846.589 586.952 836.556 577.312 819C571.931 809.202 573.454 797.588 560 797z"/>
<path style="fill:#737c7f; stroke:none;" d="M918 797L918 844L919 844C919 830.735 923.11 809.176 918 797z"/>
<path style="fill:#865d4a; stroke:none;" d="M561.667 798.333L562.333 798.667L561.667 798.333z"/>
<path style="fill:#1b1712; stroke:none;" d="M689 810C694.07 807.616 697.587 803.433 699 798C691.175 799.354 690.334 802.846 689 810z"/>
<path style="fill:#a0a6a8; stroke:none;" d="M351 799L351 822L352 822L351 799z"/>
<path style="fill:#392c26; stroke:none;" d="M689 799L690 811C689.76 806.357 689.616 802.417 694 800L689 799z"/>
<path style="fill:#9e6954; stroke:none;" d="M688 800L688 805L689 805L688 800z"/>
<path style="fill:#856253; stroke:none;" d="M568 801L568 804L569 804L568 801z"/>
<path style="fill:#eb9b79; stroke:none;" d="M687 801C684.367 808.778 684.428 816.718 680.07 824C668.825 842.791 643.851 855.179 653.464 881C655.274 885.861 657.267 890.574 662 893C657.438 878.707 649.219 869.308 658.198 854C666.866 839.224 695.919 822.255 687 801z"/>
<path style="fill:#cacbca; stroke:none;" d="M560 803L567 810L560 803z"/>
<path style="fill:#2c2d2d; stroke:none;" d="M919 803L919 844L920 844C920 832.305 923.511 813.75 919 803z"/>
<path style="fill:#41342d; stroke:none;" d="M568 804L566 809L570 810L568 804z"/>
<path style="fill:#555555; stroke:none;" d="M327.333 805.667L327.667 806.333L327.333 805.667z"/>
<path style="fill:#ffffff; stroke:none;" d="M326 807L325 813L324 813L321 808L320.233 839.714L325.674 856L327.96 909L325.91 971L321.341 996L326 1011L327 1011C327 961.568 330.2 912.342 328.039 863C327.327 846.736 333.131 821.839 326 807z"/>
<path style="fill:#bfbfbf; stroke:none;" d="M327 807L327 812L328 812L327 807z"/>
<path style="fill:#e6dad8; stroke:none;" d="M687 812C682.768 830.242 665.659 837.272 659 853C668.086 846.051 691.798 825.524 687 812z"/>
<path style="fill:#c7cecf; stroke:none;" d="M352 822L352 897L353 897L353 845L352 822z"/>
<path style="fill:#f59f7d; stroke:none;" d="M623 826C625.079 832.264 636.837 831.696 638 825L623 826z"/>
<path style="fill:#575959; stroke:none;" d="M351 829L351 867L352 867C352 856.089 355.211 839.036 351 829z"/>
<path style="fill:#7b7b7b; stroke:none;" d="M328 831L328 837L329 837L328 831z"/>
<path style="fill:#cccccc; stroke:none;" d="M328 837L328 841L329 841L328 837z"/>
<path style="fill:#8e8e8e; stroke:none;" d="M328 841L328 848L329 848L328 841z"/>
<path style="fill:#7d898d; stroke:none;" d="M917 844L917 867L918 867L917 844z"/>
<path style="fill:#484848; stroke:none;" d="M328 848L328 862L329 862L328 848z"/>
<path style="fill:#e4e0d6; stroke:none;" d="M657 854C653.997 864.53 653.202 873.184 656 884L657 884L655.301 869L657 854z"/>
<path style="fill:#c5d1d3; stroke:none;" d="M916 861L916 886L917 886L916 861z"/>
<path style="fill:#7f7f7f; stroke:none;" d="M328 862L328 868L329 868L328 862z"/>
<path style="fill:#596466; stroke:none;" d="M917 867L917 883L918 883L917 867z"/>
<path style="fill:#b2b2b2; stroke:none;" d="M329 880L329 886L330 886L329 880z"/>
<path style="fill:#8a9698; stroke:none;" d="M917 883L917 925L918 925C918 913.043 921.611 893.988 917 883z"/>
<path style="fill:#3f4042; stroke:none;" d="M918 886L918 914C918 917.64 918.756 922.653 916.258 925.682C912.316 930.462 900.572 927.628 895 928.286C871.483 931.06 846.687 929 823 929L823 930L890 929.999L916.566 927.972L919 918L918 886z"/>
<path style="fill:#84898a; stroke:none;" d="M351 894L351 923L352 923L351 894z"/>
<path style="fill:#a64042; stroke:none;" d="M670 897L670 898L677 899L670 897z"/>
<path style="fill:#bc8384; stroke:none;" d="M584 900L584 901L589 899L584 900z"/>
<path style="fill:#8e0000; stroke:none;" d="M434 1045C430.083 1028.5 441.398 1013.69 448.515 1000C464.786 968.702 479.471 929.619 515.286 916.749C529.357 911.693 545.382 913.391 560 911.826C566.492 911.131 574.5 907.448 581 908.719C596.626 911.776 606.588 924.972 624 925C638.974 925.024 650.529 921.93 664 915.359C669.359 912.745 675.982 905.107 682 905.066C689.841 905.013 699.013 908.769 707 909.714C723.273 911.641 739.543 912.234 755 918.665C783.69 930.602 799.314 959.163 812.889 985C819.885 998.316 828.87 1015.79 829.911 1031C830.929 1045.88 813.369 1054.17 802 1060.33C797.208 1062.93 790.797 1063.29 789 1069C801.475 1066.18 827.751 1054.85 832.436 1041.83C836.668 1030.06 829.452 1015.53 825.201 1005C813.146 975.129 798.364 941.019 769.911 923.468C746.535 909.049 721.98 910.468 696.015 906.116C688.387 904.837 679.388 897.745 672.089 898.242C667.976 898.521 663.92 902.679 660 904.139C649.314 908.12 638.535 911.437 627 911.961C617.816 912.378 609.179 909.798 601 905.606C597.59 903.859 594.844 899.546 591 898.878C585.683 897.955 578.577 904.741 573 905.674C552.025 909.186 531.502 909.78 511 915.749C473.849 926.565 456.46 973.376 440.76 1005C436.783 1013.01 422.968 1038.92 434 1045z"/>
<path style="fill:#c3c3c3; stroke:none;" d="M329 899L329 914L330 914L329 899z"/>
<path style="fill:#b23930; stroke:none;" d="M654 905L654 906L669 899L654 905z"/>
<path style="fill:#ae5354; stroke:none;" d="M679 900L679 901L690 904L690 903L679 900z"/>
<path style="fill:#af5656; stroke:none;" d="M573 905L573 906L584 902L573 905z"/>
<path style="fill:#d66d5a; stroke:none;" d="M597 903L601 906L597 903z"/>
<path style="fill:#ae0000; stroke:none;" d="M685 906C678.507 902.22 672.328 909.892 667 913.193C654.824 920.738 641.242 925.001 627 925C608.492 924.999 598.564 912.752 582 908.588C575.083 906.849 565.967 911.081 559 911.826C536.332 914.253 515.272 912.993 495.424 926.364C469.173 944.05 460.331 982.422 443.715 1007.71C438.559 1015.56 428.831 1034.06 433.988 1043.7C439.274 1053.58 452.431 1060.05 462 1064.81C465.267 1066.43 469.177 1069.31 473 1069.22C477.906 1069.11 482.1 1063.07 487 1061.6C497.138 1058.56 510.376 1058.31 521 1057.17C531.725 1056.02 546.719 1059.91 556.736 1055.4C561.911 1053.06 561.517 1043.73 562.05 1039C563.638 1024.9 564.275 1008.29 570.146 995.17C581.425 969.957 591.621 952.691 614.867 937.482C618.056 935.396 619.495 931.941 623.044 930.248C633.67 925.178 646.841 924.618 658 920.316C667.208 916.765 675.12 906.676 685 906z"/>
<path style="fill:#b96f70; stroke:none;" d="M691 904L691 905L697 905L691 904z"/>
<path style="fill:#d4b9bb; stroke:none;" d="M697 904L697 905L702 905L697 904z"/>
<path style="fill:#c59d9e; stroke:none;" d="M565 905L565 906L573 906L565 905z"/>
<path style="fill:#9f2626; stroke:none;" d="M691 905L691 906L705 907L691 905z"/>
<path style="fill:#bc8082; stroke:none;" d="M700 905L700 906L719 907L700 905z"/>
<path style="fill:#d3c7c9; stroke:none;" d="M553 906L553 907L564 907L553 906z"/>
<path style="fill:#a11f1a; stroke:none;" d="M641 909L641 910L654 907L641 909z"/>
<path style="fill:#ba0000; stroke:none;" d="M489 1060L489 1061L634 1059.96L753 1055C751.901 1052.63 745.856 1044.21 748.714 1041.92C752.147 1039.17 757.746 1053.53 758 1056C770.312 1056.03 779.099 1058.18 788 1067C800.489 1060.62 821.98 1054.51 828.821 1041C836.405 1026.01 819.736 997.033 812.889 984C800.06 959.582 786.075 933.454 759.985 920.475C744.145 912.595 726.209 911.469 709 909.83C700.583 909.029 691.411 905.511 683.039 906.059C673.074 906.71 659.649 919.067 650 923.216C641.189 927.005 630.695 925.948 622.108 930.248C618.99 931.809 617.642 934.924 614.867 936.892C592.227 952.949 579.269 969.442 569.384 996.089C564.625 1008.92 563.787 1023.54 562.155 1037C561.516 1042.27 561.961 1050.63 557.525 1054.4C553.518 1057.8 542.11 1056.99 537 1057C520.739 1057.03 505.276 1060 489 1060z"/>
<path style="fill:#b87e7f; stroke:none;" d="M550 907L550 908L559 908L550 907z"/>
<path style="fill:#e5886f; stroke:none;" d="M605 907L605 908L612 909L605 907z"/>
<path style="fill:#a13435; stroke:none;" d="M706 907L706 908L719 908L706 907z"/>
<path style="fill:#c18587; stroke:none;" d="M719 907L719 908L724 908L719 907z"/>
<path style="fill:#d1b3b6; stroke:none;" d="M724 907L724 908L729 908L724 907z"/>
<path style="fill:#c8a6a8; stroke:none;" d="M535 908L535 909L541 909L535 908z"/>
<path style="fill:#ad5d5e; stroke:none;" d="M541 908L541 909L550 909L541 908z"/>
<path style="fill:#bf787a; stroke:none;" d="M726 908L726 909L732 909L726 908z"/>
<path style="fill:#d9babd; stroke:none;" d="M732 908L732 909L740 910L732 908z"/>
<path style="fill:#ccb0b2; stroke:none;" d="M528 909L528 910L534 910L528 909z"/>
<path style="fill:#b16163; stroke:none;" d="M534 909L534 910L541 910L534 909z"/>
<path style="fill:#c65a4a; stroke:none;" d="M610 909L610 910L636 911L610 909z"/>
<path style="fill:#a22d2d; stroke:none;" d="M726 909L726 910L743 912L726 909z"/>
<path style="fill:#bd8384; stroke:none;" d="M520 911L520 912L530 911L520 911z"/>
<path style="fill:#a3221d; stroke:none;" d="M615 911L615 912L632 912L615 911z"/>
<path style="fill:#c57879; stroke:none;" d="M743 911L743 912L746 912L743 911z"/>
<path style="fill:#caa3a3; stroke:none;" d="M517 912L517 913L520 913L517 912z"/>
<path style="fill:#bd6868; stroke:none;" d="M746 912L746 913L749 913L746 912z"/>
<path style="fill:#b15b5c; stroke:none;" d="M507 916L507 917L520 914L507 916z"/>
<path style="fill:#aa3637; stroke:none;" d="M749 913L749 914L757 916L749 913z"/>
<path style="fill:#a0a0a0; stroke:none;" d="M329 914L329 933L330 933L329 914z"/>
<path style="fill:#d5b1b3; stroke:none;" d="M755.667 914.333L756.333 914.667L755.667 914.333z"/>
<path style="fill:#d3afb1; stroke:none;" d="M757.667 915.333L758.333 915.667L757.667 915.333z"/>
<path style="fill:#b55456; stroke:none;" d="M757 916L757 917L761 918L761 917L757 916z"/>
<path style="fill:#b26364; stroke:none;" d="M503 919L506 917L503 919z"/>
<path style="fill:#a84445; stroke:none;" d="M761 918L761 919L769 923L761 918z"/>
<path style="fill:#b96c6d; stroke:none;" d="M501.667 919.333L502.333 919.667L501.667 919.333z"/>
<path style="fill:#af5959; stroke:none;" d="M495 923L495 924L501 920L495 923z"/>
<path style="fill:#95999a; stroke:none;" d="M352 924L352 925L366 925L352 924z"/>
<path style="fill:#a24949; stroke:none;" d="M489 927L489 928L495 924L489 927z"/>
<path style="fill:#505555; stroke:none;" d="M352 925L352 926L459 927L425 926L352 925z"/>
<path style="fill:#a2a6a7; stroke:none;" d="M377 925L377 926L459 926L434 925L377 925z"/>
<path style="fill:#cdd4d6; stroke:none;" d="M459 925L459 926L492 926L459 925z"/>
<path style="fill:#9e2e2f; stroke:none;" d="M773 925L779 930L779 929L773 925z"/>
<path style="fill:#868b8c; stroke:none;" d="M459 926L459 927L491 927L459 926z"/>
<path style="fill:#bcc9cb; stroke:none;" d="M900 926L900 927L917 927L900 926z"/>
<path style="fill:#4a4c4c; stroke:none;" d="M459 927L459 928L489 928L459 927z"/>
<path style="fill:#c0ced1; stroke:none;" d="M776 927L776 928L801 929L776 927z"/>
<path style="fill:#bbc9cb; stroke:none;" d="M820 927L820 928L886 928L865 927L820 927z"/>
<path style="fill:#a0a9aa; stroke:none;" d="M886 927L886 928L894 928L886 927z"/>
<path style="fill:#7a7e7f; stroke:none;" d="M894 927L894 928L916 928L894 927z"/>
<path style="fill:#444646; stroke:none;" d="M777 928L777 929C787.922 933.628 803.264 931 815 931L815 930L777 928z"/>
<path style="fill:#abb6b7; stroke:none;" d="M801 928L801 929L820 929L801 928z"/>
<path style="fill:#7a7e7e; stroke:none;" d="M781 929L781 930L877 929L849 928L781 929z"/>
<path style="fill:#5f6565; stroke:none;" d="M877 928L877 929L894 929L877 928z"/>
<path style="fill:#535353; stroke:none;" d="M329 933L329 948L330 948L329 933z"/>
<path style="fill:#b8b8b8; stroke:none;" d="M328 947L328 955L329 955L328 947z"/>
<path style="fill:#404041; stroke:none;" d="M426 949L426 950L464 950C453.964 945.789 436.911 949 426 949z"/>
<path style="fill:#5e6262; stroke:none;" d="M464 949L464 950L471 951L464 949z"/>
<path style="fill:#464849; stroke:none;" d="M851 950L851 951L918 950L898 949L851 950z"/>
<path style="fill:#474949; stroke:none;" d="M351 950L351 951L377 951L351 950z"/>
<path style="fill:#616565; stroke:none;" d="M377 950L377 951L426 951C413.348 945.691 390.788 950 377 950z"/>
<path style="fill:#898b8c; stroke:none;" d="M426 950L426 951L464 951C453.964 946.789 436.911 950 426 950z"/>
<path style="fill:#a3aaab; stroke:none;" d="M464 950L464 951L469 953C470.235 949.725 466.499 950.041 464 950z"/>
<path style="fill:#788384; stroke:none;" d="M798 953L799 953C804.6 948.758 816.15 951 823 951C818.965 948.675 799.063 948.039 798 953z"/>
<path style="fill:#5e6364; stroke:none;" d="M823 950L823 951L851 951L823 950z"/>
<path style="fill:#7e888a; stroke:none;" d="M887 950L887 951L918 951L887 950z"/>
<path style="fill:#3e4244; stroke:none;" d="M918 950L918 996L919 996C919 982.997 923.01 961.939 918 950z"/>
<path style="fill:#929898; stroke:none;" d="M351 953L368 952C363.905 950.282 354.083 949.471 351 953z"/>
<path style="fill:#abb1b1; stroke:none;" d="M368 951L368 952L426 952L407 951L368 951z"/>
<path style="fill:#c3cacb; stroke:none;" d="M426 951L426 952C436.374 952 459.702 947.714 468 954C469.61 949.728 461.642 951 459 951L426 951z"/>
<path style="fill:#b5c1c3; stroke:none;" d="M799 954L800 954C805.441 949.878 816.353 952 823 952C819.026 949.71 800.06 949.054 799 954z"/>
<path style="fill:#9fa5a8; stroke:none;" d="M823 951L823 952L882 952L863 951L823 951z"/>
<path style="fill:#b7c3c6; stroke:none;" d="M882 951L882 952L912 952L882 951z"/>
<path style="fill:#a4adaf; stroke:none;" d="M912 951L912 952L917 952L917 996L918 996L918 951L912 951z"/>
<path style="fill:#e5eced; stroke:none;" d="M352 952L352 954C383.398 954 419.141 949.271 450 955C444.409 960.984 441.394 969.723 437.753 977C429.988 992.52 414.067 1014.79 416 1033L413 1032L413 1037L407 1043L404 1042L404 1057L423 1060L429.708 1046L429.901 1032L445.306 996L468 952L352 952z"/>
<path style="fill:#e3f1f4; stroke:none;" d="M800 952C801.77 958.877 806.983 964.688 810.194 971C816.887 984.157 822.856 997.192 828.086 1011C830.915 1018.47 833.656 1026.97 833.96 1035C834.124 1039.33 831.552 1043.88 832.706 1048.01C835.431 1057.79 840.513 1067.21 843.489 1077C850.364 1099.61 853.991 1121.5 855 1145L856 1145L856 1139L932 1138L932 1136L916.742 1134.4L915 1122L914 1092L917 952L800 952z"/>
<path style="fill:#bbc6c9; stroke:none;" d="M823 952L823 953L876 953L859 952L823 952z"/>
<path style="fill:#3d3e3e; stroke:none;" d="M350 953L350 992L351 992C351 980.828 354.311 963.274 350 953z"/>
<path style="fill:#cdd6d7; stroke:none;" d="M351 953L351 1050L352 1050L352 983L351 953z"/>
<path style="fill:#a33333; stroke:none;" d="M469 953L467 957L469 953z"/>
<path style="fill:#f2f9fa; stroke:none;" d="M352 954L351 1075L371 1062C371 1052.98 368.755 1040.4 372.367 1032C378.188 1018.46 391.166 1013.74 400.348 1027C403.73 1031.88 403.38 1037.57 405 1043L407 1043L413 1037L413 1032L416 1033C416.843 1015.45 427.243 998.116 435.219 983C440.123 973.706 444.016 963.665 450 955L416 954L352 954z"/>
<path style="fill:#8c8c8c; stroke:none;" d="M328 955L328 974L329 974L328 955z"/>
<path style="fill:#a63b3c; stroke:none;" d="M800 955L803 959L800 955z"/>
<path style="fill:#af5e5e; stroke:none;" d="M466 957L465 960L466 957z"/>
<path style="fill:#a94545; stroke:none;" d="M803.333 959.667L803.667 960.333L803.333 959.667z"/>
<path style="fill:#af5a5b; stroke:none;" d="M804 961L806 964L804 961z"/>
<path style="fill:#ae595a; stroke:none;" d="M463 962L462 965L463 962z"/>
<path style="fill:#aa4848; stroke:none;" d="M806.333 964.667L806.667 965.333L806.333 964.667z"/>
<path style="fill:#b16162; stroke:none;" d="M807 966L809 969L807 966z"/>
<path style="fill:#b4696a; stroke:none;" d="M460 967L459 970L460 967z"/>
<path style="fill:#b25f61; stroke:none;" d="M809.333 969.667L809.667 970.333L809.333 969.667z"/>
<path style="fill:#b16060; stroke:none;" d="M458.333 970.667L458.667 971.333L458.333 970.667z"/>
<path style="fill:#b36a6b; stroke:none;" d="M810.333 971.667L810.667 972.333L810.333 971.667z"/>
<path style="fill:#ac5252; stroke:none;" d="M457.333 972.667L457.667 973.333L457.333 972.667z"/>
<path style="fill:#b67476; stroke:none;" d="M811.333 973.667L811.667 974.333L811.333 973.667z"/>
<path style="fill:#545454; stroke:none;" d="M328 974L328 981L329 981L328 974z"/>
<path style="fill:#b66868; stroke:none;" d="M455 976L454 979L455 976z"/>
<path style="fill:#b26061; stroke:none;" d="M453.333 979.667L453.667 980.333L453.333 979.667z"/>
<path style="fill:#ab5253; stroke:none;" d="M814.333 979.667L814.667 980.333L814.333 979.667z"/>
<path style="fill:#af5556; stroke:none;" d="M452.333 981.667L452.667 982.333L452.333 981.667z"/>
<path style="fill:#b16060; stroke:none;" d="M815.333 981.667L815.667 982.333L815.333 981.667z"/>
<path style="fill:#af5b5c; stroke:none;" d="M816.333 983.667L816.667 984.333L816.333 983.667z"/>
<path style="fill:#c59d9f; stroke:none;" d="M817.333 984.667L817.667 985.333L817.333 984.667z"/>
<path style="fill:#be7c7e; stroke:none;" d="M449 987L448 990L449 987z"/>
<path style="fill:#bc8183; stroke:none;" d="M818.333 987.667L818.667 988.333L818.333 987.667z"/>
<path style="fill:#c59c9e; stroke:none;" d="M819.333 989.667L819.667 990.333L819.333 989.667z"/>
<path style="fill:#d4c3c5; stroke:none;" d="M820 991L821 996L822 996L820 991z"/>
<path style="fill:#a0a0a0; stroke:none;" d="M327 992L327 997L328 997L327 992z"/>
<path style="fill:#626565; stroke:none;" d="M350 992L350 1017L351 1017L350 992z"/>
<path style="fill:#b15858; stroke:none;" d="M446.333 993.667L446.667 994.333L446.333 993.667z"/>
<path style="fill:#b56263; stroke:none;" d="M445.333 995.667L445.667 996.333L445.333 995.667z"/>
<path style="fill:#d5c2c4; stroke:none;" d="M822 996L823 1001L824 1001L822 996z"/>
<path style="fill:#4c5558; stroke:none;" d="M917 996L917 1036L918 1036C918 1024.57 921.411 1006.51 917 996z"/>
<path style="fill:#787878; stroke:none;" d="M327 997L327 1004L328 1004L327 997z"/>
<path style="fill:#bb6f6f; stroke:none;" d="M444.333 997.667L444.667 998.333L444.333 997.667z"/>
<path style="fill:#919ea0; stroke:none;" d="M916 997L916 1009L917 1009L916 997z"/>
<path style="fill:#d0abad; stroke:none;" d="M824 1001L824 1004L825 1004L824 1001z"/>
<path style="fill:#c68b8d; stroke:none;" d="M825.333 1004.67L825.667 1005.33L825.333 1004.67z"/>
<path style="fill:#bc6769; stroke:none;" d="M826.333 1007.67L826.667 1008.33L826.333 1007.67z"/>
<path style="fill:#bf7475; stroke:none;" d="M827.333 1009.67L827.667 1010.33L827.333 1009.67z"/>
<path style="fill:#cfdbdd; stroke:none;" d="M916 1009L916 1041L917 1041L916 1009z"/>
<path style="fill:#c28486; stroke:none;" d="M828.333 1011.67L828.667 1012.33L828.333 1011.67z"/>
<path style="fill:#b35556; stroke:none;" d="M437.333 1012.67L437.667 1013.33L437.333 1012.67z"/>
<path style="fill:#b56465; stroke:none;" d="M436.333 1014.67L436.667 1015.33L436.333 1014.67z"/>
<path style="fill:#ba7878; stroke:none;" d="M435.333 1016.67L435.667 1017.33L435.333 1016.67z"/>
<path style="fill:#8e9595; stroke:none;" d="M350 1017L350 1024L351 1024L350 1017z"/>
<path style="fill:#808080; stroke:none;" d="M371 1062L351 1075L351 1068L350 1068C349.97 1078.29 337.704 1091.89 344.603 1101.94C350.209 1110.11 365.869 1112.88 375 1113C379.091 1113.05 387.229 1111.44 390.397 1114.6C394.706 1118.91 392 1134.19 392 1140L405.382 1138.4L406 1112C424.306 1112 434.219 1104.02 450 1097L446.991 1077L437.102 1064.99L443 1050L431 1044L423 1060L404 1057C403.999 1048.89 405.181 1035.27 401.543 1028C394.055 1013.03 378.156 1017.54 372.367 1031C368.651 1039.64 371 1052.71 371 1062z"/>
<path style="fill:#b16162; stroke:none;" d="M434.333 1019.67L434.667 1020.33L434.333 1019.67z"/>
<path style="fill:#a8a8a8; stroke:none;" d="M374 1037C376.882 1035 379.634 1031.91 383 1030.76C395.075 1026.63 394 1048.38 394 1055L394 1115C394 1125.78 390.438 1136.99 404 1137C404 1112.78 403.743 1088.15 402.09 1064C401.542 1056.01 403.432 1047.09 401.545 1039.29C400.144 1033.49 399.224 1026.53 393.896 1022.89C384.278 1016.33 374.898 1028.28 374 1037z"/>
<path style="fill:#bd8282; stroke:none;" d="M433.333 1021.67L433.667 1022.33L433.333 1021.67z"/>
<path style="fill:#666a6b; stroke:none;" d="M350 1024L350 1049L351 1049L350 1024z"/>
<path style="fill:#b97b7c; stroke:none;" d="M432.333 1024.67L432.667 1025.33L432.333 1024.67z"/>
<path style="fill:#bb7576; stroke:none;" d="M832 1025L832 1028L833 1028L832 1025z"/>
<path style="fill:#b97779; stroke:none;" d="M431.333 1027.67L431.667 1028.33L431.333 1027.67z"/>
<path style="fill:#ffffff; stroke:none;" d="M326 1029C314.86 1047.51 312.469 1064.41 325 1083L326 1083C326 1067.83 331.837 1042.91 326 1029z"/>
<path style="fill:#b05e5e; stroke:none;" d="M430.333 1030.67L430.667 1031.33L430.333 1030.67z"/>
<path style="fill:#bd888b; stroke:none;" d="M833 1030L833 1043L834 1043L833 1030z"/>
<path style="fill:#b7bbbb; stroke:none;" d="M384 1034L388 1033L384 1034z"/>
<path style="fill:#a33838; stroke:none;" d="M429 1032L429 1041L430 1041L429 1032z"/>
<path style="fill:#d1d7d7; stroke:none;" d="M385 1033L385 1034C392.444 1038.01 390 1049.74 390 1057C392.617 1050.76 393.293 1034.37 385 1033z"/>
<path style="fill:#e9eff0; stroke:none;" d="M383 1058L390 1058C390 1054.52 392.003 1032.62 385.263 1034.75C380.677 1036.2 383 1053.95 383 1058z"/>
<path style="fill:#ccd0d1; stroke:none;" d="M403 1034L403 1039L404 1039L403 1034z"/>
<path style="fill:#a9abab; stroke:none;" d="M403 1039L403 1047L404 1047L403 1039z"/>
<path style="fill:#8e0000; stroke:none;" d="M759 1055C758.037 1052.94 756.952 1050.99 755.861 1049C746.114 1031.13 745.408 1054.56 759 1055z"/>
<path style="fill:#9aa6a8; stroke:none;" d="M916 1041L916 1050L917 1050L916 1041z"/>
<path style="fill:#cdb4b6; stroke:none;" d="M430 1043L430 1047L431 1047L430 1043z"/>
<path style="fill:#e99c7c; stroke:none;" d="M830 1044L827 1050C834.598 1050.35 837.614 1064.84 839.667 1071C847.447 1094.34 853 1120.37 853 1145L855 1145C854.512 1121.37 850.385 1098.68 843.489 1076C840.277 1065.44 834.044 1054.72 832 1044L830 1044z"/>
<path style="fill:#a8a8a8; stroke:none;" d="M432 1048L415 1080L422.582 1081.35L427.876 1073L440 1051L432 1048z"/>
<path style="fill:#9da4a5; stroke:none;" d="M350 1049L350 1068L351 1068L350 1049z"/>
<path style="fill:#d5725e; stroke:none;" d="M811 1059L811 1060C817.281 1058.15 823.022 1054.19 827 1049L811 1059z"/>
<path style="fill:#feb799; stroke:none;" d="M790 1070C790.885 1112.88 786.371 1153.5 781 1196L827 1188C827 1174 821.015 1147.04 841 1146C840.027 1139.34 830.03 1132.42 831.056 1126.06C831.834 1121.25 836.413 1123.88 838.331 1126.06C842.867 1131.23 847.063 1138.42 849 1145L853 1145C853 1120.68 847.867 1095.12 840.33 1072C838.783 1067.25 835.249 1051.14 829.725 1049.83C825.796 1048.9 820.945 1054.29 818 1056.25C809.884 1061.66 799.225 1066.92 790 1070z"/>
<path style="fill:#596465; stroke:none;" d="M916 1050L916 1058L917 1058L916 1050z"/>
<path style="fill:#faae8f; stroke:none;" d="M442 1053L436.736 1065.96L447.991 1080L450.385 1097L451.17 1122L455 1196L478 1200C478 1178.16 479.002 1154.73 476.829 1133C474.917 1113.87 469.491 1089.94 474 1071L442 1053z"/>
<path style="fill:#9d9d9d; stroke:none;" d="M326 1054L326 1063L327 1063L326 1054z"/>
<path style="fill:#a7b2b5; stroke:none;" d="M915 1054L915 1062L916 1062L915 1054z"/>
<path style="fill:#bb3333; stroke:none;" d="M732 1055L732 1056L758 1056L732 1055z"/>
<path style="fill:#bc3838; stroke:none;" d="M704 1056L704 1057L728 1057L704 1056z"/>
<path style="fill:#bf7d7d; stroke:none;" d="M728 1056L728 1057L759 1057L728 1056z"/>
<path style="fill:#bb5252; stroke:none;" d="M759 1056L759 1057L767 1057L759 1056z"/>
<path style="fill:#bf7575; stroke:none;" d="M693 1058L693 1059L727 1058C717.37 1053.96 703.184 1057.79 693 1058z"/>
<path style="fill:#c8c8c8; stroke:none;" d="M478 1120L479 1120C479.842 1100.39 482.391 1078.04 502 1068.1C510.9 1063.58 516.987 1067.08 526 1066.95C540.959 1066.73 555.971 1066 571 1066C619.578 1066 668.572 1060 717 1060L758 1060C766.299 1060 773.987 1059.3 780.985 1064.61C792.877 1073.63 787.332 1093.24 787.015 1106C786.526 1125.65 785.964 1145.54 782.714 1165C780.433 1178.66 776.489 1192.2 775.17 1206C773.825 1220.07 775.436 1240.1 760.961 1248.35C753.348 1252.69 743.443 1252 735 1252L689 1252C661.419 1252 633.552 1250.83 606 1252.04C571.344 1253.56 534.974 1255.98 501 1249L501 1250L509 1253L509 1254L499 1253C518.155 1263.76 539.69 1257.01 560 1257C607.772 1256.98 655.083 1255 703 1255C720.814 1255 753.326 1261.29 767.532 1248.39C774.625 1241.94 774.952 1233.57 776.665 1225C780.289 1206.86 780.568 1188.08 784.286 1170C789.441 1144.92 791 1118.57 791 1093C791 1084.49 792.804 1071.95 786.772 1065.05C773.062 1049.38 737.299 1057.91 719 1058C663.121 1058.27 606.984 1064 551 1064C535.296 1064 519.576 1063.28 504 1063.96C497.405 1064.25 489.985 1062.89 484.184 1066.84C470.461 1076.19 478 1105.72 478 1120z"/>
<path style="fill:#bc4c4c; stroke:none;" d="M768 1057L768 1058L776 1058L768 1057z"/>
<path style="fill:#bd4545; stroke:none;" d="M662 1058L662 1059L693 1059L662 1058z"/>
<path style="fill:#c25546; stroke:none;" d="M451 1059L454 1061L451 1059z"/>
<path style="fill:#bd4b4b; stroke:none;" d="M638 1059L638 1060L662 1060L638 1059z"/>
<path style="fill:#c07575; stroke:none;" d="M662 1059L662 1060L670 1060L662 1059z"/>
<path style="fill:#c19e9e; stroke:none;" d="M483 1063L483 1064L587 1063L699 1060L680 1059L633 1060.96L534 1062L483 1063z"/>
<path style="fill:#a8a8a8; stroke:none;" d="M405 1060L405 1096C415.713 1095.99 428.796 1093.25 437.999 1087.53C445.728 1082.73 445.912 1074.65 436.989 1070.49C428.237 1066.41 424.077 1097.84 412.792 1082.44C409.555 1078.02 419.326 1067.07 420 1062L405 1060z"/>
<path style="fill:#bf5858; stroke:none;" d="M585 1060L585 1061L638 1061L621 1060L585 1060z"/>
<path style="fill:#d8d8d8; stroke:none;" d="M651 1252L651 1251L631 1250L620.941 1221.83L616 1212C618.214 1203.72 612.359 1193.77 610.629 1185.56C607.476 1170.6 609.082 1155.83 607.495 1140.83C606.871 1134.93 609.326 1123.79 604 1120L604 1119L604 1118L606 1118L607 1095L609.222 1087L615 1065C649.942 1065 685.169 1064.3 720 1061.91C742.453 1060.37 766.783 1056.92 786 1070C782.003 1061.63 773.458 1060 765 1060L720 1060C664.522 1060 608.667 1066 553 1066C543.969 1066 534.969 1066.75 526 1066.87C510.845 1067.06 500.165 1063.62 489.184 1078.01C476.713 1094.36 479.116 1118.72 479.961 1138C481.014 1162.05 478.361 1186.24 482.999 1210C485.537 1223 485.63 1237.18 496.579 1246.57C507.401 1255.84 527.905 1253 541 1253C577.726 1253 614.29 1252 651 1252z"/>
<path style="fill:#bc6060; stroke:none;" d="M780.667 1060.33L781.333 1060.67L780.667 1060.33z"/>
<path style="fill:#a2a2a2; stroke:none;" d="M390 1097L390 1061C376.563 1061 364.79 1065.32 355.039 1075.04C352.463 1077.61 346.925 1082.67 347.831 1086.81C348.68 1090.7 354.799 1092.56 358 1093.77C368.238 1097.64 379.202 1099 390 1097z"/>
<path style="fill:#cb6453; stroke:none;" d="M454 1061L457 1063L454 1061z"/>
<path style="fill:#bd4a4a; stroke:none;" d="M488 1061L488 1062L584 1062L555 1061L488 1061z"/>
<path style="fill:#e4e4e4; stroke:none;" d="M615 1065L607 1095C607.71 1101.82 607.498 1111.97 604 1118L604 1119L604 1120C608.739 1125.39 607.058 1136.16 607.336 1143C607.923 1157.47 607.399 1172.1 610.478 1186.39C612.246 1194.59 617.358 1203.54 616 1212C623.236 1220.8 628.908 1238.9 631 1250C661.857 1250 692.969 1252 724 1252C735.704 1252 752.597 1254.74 762.826 1247.79C775.605 1239.09 773.894 1220.35 775.17 1207C778.365 1173.56 786.546 1141.91 787.004 1108C787.169 1095.75 793.232 1074.91 781.982 1066.35C770.051 1057.28 750.085 1061 736 1061C695.672 1061 655.416 1065 615 1065z"/>
<path style="fill:#c25548; stroke:none;" d="M805 1062L805 1063L809 1062L805 1062z"/>
<path style="fill:#bd6464; stroke:none;" d="M481 1063L481 1064L486 1063L481 1063z"/>
<path style="fill:#677375; stroke:none;" d="M915 1062L915 1077L916 1077L915 1062z"/>
<path style="fill:#666666; stroke:none;" d="M326 1063L326 1067L327 1067L326 1063z"/>
<path style="fill:#db7b68; stroke:none;" d="M457 1063L462 1066L462 1065L457 1063z"/>
<path style="fill:#bcbaba; stroke:none;" d="M509 1254L509 1253C490.051 1246.01 486.438 1229.9 483.562 1212C478.754 1182.08 481.694 1152.08 478.83 1122C477.627 1109.36 472.518 1085.61 478.558 1074.04C484.716 1062.24 497.767 1064 509 1064C499.702 1060.1 478.144 1061.43 473.858 1072C471.408 1078.04 473.484 1085.77 473.91 1092C474.856 1105.81 474.924 1119.24 476.711 1133C480.717 1163.84 476.8 1194.95 482.081 1226C484.599 1240.81 493.334 1253.33 509 1254z"/>
<path style="fill:#bfb3b3; stroke:none;" d="M517 1063L517 1064L593 1064L569 1063L517 1063z"/>
<path style="fill:#bf5042; stroke:none;" d="M461 1064L464 1066L461 1064z"/>
<path style="fill:#cc6251; stroke:none;" d="M790 1069L790 1070L800 1067L790 1069z"/>
<path style="fill:#c75d4d; stroke:none;" d="M469 1068L475 1071L475 1070L469 1068z"/>
<path style="fill:#b1bbbd; stroke:none;" d="M914 1077L914 1112L915 1112L914 1077z"/>
<path style="fill:#4d5557; stroke:none;" d="M915 1077L915 1113L916 1113C916 1102.61 919.011 1086.56 915 1077z"/>
<path style="fill:#4e4e4e; stroke:none;" d="M343 1087L343 1091L344 1091L343 1087z"/>
<path style="fill:#b53e3e; stroke:none;" d="M438 1104L438 1105L450 1098L438 1104z"/>
<path style="fill:#e0564b; stroke:none;" d="M450 1097L450 1116L451 1116L450 1097z"/>
<path style="fill:#d02726; stroke:none;" d="M406 1114L406 1121L449 1106C449 1130.31 450.43 1154.76 452.09 1179C452.818 1189.64 455.471 1203.62 452.196 1214C449.675 1221.98 442.117 1224.68 435.089 1227.38C419.472 1233.37 403.624 1235.28 387 1233C381.579 1232.26 373.78 1233.18 369.093 1230.14C363.969 1226.82 360.836 1219.48 358.711 1214C352.052 1196.82 354.038 1172.95 356.424 1155C357.418 1147.53 358.389 1139.03 363.34 1133C369.78 1125.17 381.732 1125.45 391 1123L391 1114C371.292 1114 359.41 1108.92 342 1101L342 1106C290.848 1110.18 297.219 1176 324 1203L327 1201L334.972 1209.05L336 1226C344.217 1227.76 351.762 1232.21 360.17 1233.74C366.318 1234.86 372.8 1233.43 379 1234.13C394.711 1235.89 410.296 1237.32 426 1233.47C434.602 1231.37 448.096 1228.21 453.012 1219.91C458.873 1210.01 455.215 1188.98 454.17 1178C451.689 1151.93 450 1124.18 450 1098C434.899 1104.72 423.389 1113.25 406 1114z"/>
<path style="fill:#551919; stroke:none;" d="M341 1101L338 1105L338 1106L342 1106L341 1101z"/>
<path style="fill:#ae4646; stroke:none;" d="M430 1108L430 1109L436 1107L430 1108z"/>
<path style="fill:#e52f2e; stroke:none;" d="M391 1123C383.153 1124.33 369.807 1125.14 364.188 1131.06C357.029 1138.6 356.016 1152.1 356 1162C355.966 1183.22 349.749 1211.56 366.529 1228.72C371.078 1233.38 379.972 1232.17 386 1233C402.629 1235.28 419.45 1233.99 435.089 1227.74C441.603 1225.14 448.933 1223.18 451.853 1215.96C456.114 1205.43 452.846 1189.05 452.09 1178C450.453 1154.1 449 1129.97 449 1106C439.464 1108.65 430.494 1113.76 421 1116.84C417.286 1118.04 410.584 1118.53 407.603 1121.01C403.077 1124.79 408.337 1133.31 405.307 1137.85C402.713 1141.74 393.719 1142.7 391.603 1137.85C389.825 1133.78 391 1127.38 391 1123M336 1203C335.387 1194.87 327.514 1189.03 323.782 1182C314 1163.57 309.969 1119.1 340 1116L340 1109C328.326 1109.25 318.103 1119.3 312.792 1128.91C298.885 1154.07 308.771 1190.61 336 1203z"/>
<path style="fill:#ad3c3c; stroke:none;" d="M406 1112L406 1114L426 1111L406 1112z"/>
<path style="fill:#edbca8; stroke:none;" d="M852 1112L852 1117L853 1117L852 1112z"/>
<path style="fill:#9d5454; stroke:none;" d="M371 1113L371 1114L391 1114L371 1113z"/>
<path style="fill:#9da5a8; stroke:none;" d="M915 1113L915 1134L916 1134L915 1113z"/>
<path style="fill:#c04e4d; stroke:none;" d="M391 1114L391 1140L392 1140L391 1114z"/>
<path style="fill:#6a1010; stroke:none;" d="M335 1119L335 1120L341 1121C342.478 1117.08 337.3 1118.26 335 1119z"/>
<path style="fill:#4a4a4a; stroke:none;" d="M916 1118L916 1134L934 1134L934 1133L917 1133L916 1118z"/>
<path style="fill:#000000; stroke:none;" d="M322 1169L323 1169L325 1145L339 1146L341 1119C317.976 1121.56 320.895 1153.38 322 1169z"/>
<path style="fill:#330a0a; stroke:none;" d="M327 1129L328 1129L335 1120L327 1129z"/>
<path style="fill:#aaaaaa; stroke:none;" d="M841 1146C823.48 1146.41 827 1163.21 827 1176C827 1199.77 822.117 1238.85 855 1237.99C883.041 1237.25 882.001 1196.29 882 1176C882 1169.51 882.439 1157.63 878.397 1152.21C872.343 1144.11 857.902 1145 849 1145C847.772 1138.2 843.06 1130.19 838.331 1125.15C835.975 1122.64 831.238 1121.2 830.581 1126.06C829.691 1132.64 839.342 1139.62 841 1146z"/>
<path style="fill:#430a0a; stroke:none;" d="M340 1123L340 1131L341 1131L340 1123z"/>
<path style="fill:#9f9f9f; stroke:none;" d="M934 1132C930.761 1137 921.383 1135 916 1135L916 1136L936 1137L936 1132L934 1132z"/>
<path style="fill:#ffffff; stroke:none;" d="M936 1133L936 1136L937 1136L936 1133z"/>
<path style="fill:#6c6c6c; stroke:none;" d="M916 1134L916 1135L934 1135L916 1134z"/>
<path style="fill:#fafafa; stroke:none;" d="M856 1139L856 1145C863.491 1145.59 873.626 1146.31 878.397 1153.1C881.419 1157.41 881.858 1166.82 881.985 1172C882.349 1186.8 881.263 1201.67 877.529 1216C876.05 1221.67 874.505 1228.55 869.812 1232.5C854.642 1245.26 829.6 1236.14 828.09 1216C827.373 1206.43 828 1196.6 828 1187C812.337 1191.53 796.573 1196.95 780 1197C779.68 1212.49 779.015 1240.11 764.91 1249.73C748.228 1261.1 720.169 1256 701 1256C653.609 1256 606.358 1256.98 559 1257C538.952 1257.01 517.297 1263.88 498.576 1252.41C481.572 1241.99 480.392 1217.64 479 1200L456 1198C456 1213.08 457.175 1234.62 444.945 1245.85C439.324 1251.01 430.192 1252.42 423 1254.01C404.051 1258.21 380.139 1259.86 361 1254.84C354.714 1253.2 346.901 1251.44 342.302 1246.56C333.698 1237.42 335 1218.59 335 1207L325 1202C325 1221.45 326.766 1240.62 326.996 1260C327.163 1274.03 324.759 1287.96 326.739 1301.99C328.165 1312.09 330.225 1330.98 344 1331L355.285 1335.13L387 1338L385 1334C396.136 1331.35 407.858 1333.59 419 1335L419 1336L405 1336L405 1338L464.896 1336.83L480 1333L493.174 1336.65L532 1336L532 1335L526 1335L526 1334L538 1334L537 1336L544 1336L544 1333L561 1335L575 1333L573 1335L573 1336L606 1333L600 1336L600 1337C614.122 1336.82 629.038 1336.72 643 1335.77C649.706 1335.31 655.928 1332.09 663 1332C670.134 1331.92 677.93 1331.18 685 1332.14C691.514 1333.03 697.108 1336.2 704 1335.9C711.877 1335.55 719.321 1332.22 727.015 1332.12C734.331 1332.02 741.63 1334.19 749 1334.29C784.898 1334.77 823.636 1335.75 859 1330C863.686 1334.93 883.143 1331 890 1331L890 1330L886 1330L886 1329L909 1329C913.83 1324.8 920.756 1325.51 925.446 1320.54C940.24 1304.84 935 1279.78 935 1260L936 1260L936 1264L937 1264L936 1217L937 1217L937 1221L938 1200L937.711 1156L934.652 1137.16L919 1137.83L856 1139z"/>
<path style="fill:#555555; stroke:none;" d="M936 1136L936 1139L937 1139L936 1136z"/>
<path style="fill:#262626; stroke:none;" d="M339 1139L339 1146L326 1146L326 1147L340 1147L339 1139z"/>
<path style="fill:#ae5c5c; stroke:none;" d="M392 1140L392 1141L404 1141L392 1140z"/>
<path style="fill:#c5c5c5; stroke:none;" d="M936 1142L936 1150L937 1150L936 1142z"/>
<path style="fill:#ffffff; stroke:none;" d="M937 1142L937 1148L938 1148L937 1142z"/>
<path style="fill:#dfdfdf; stroke:none;" d="M325 1145L324 1163L325 1163C325.088 1153.12 328.647 1151 338 1151L338 1162L339 1162L339 1149L326 1149L325 1145z"/>
<path style="fill:#606060; stroke:none;" d="M326 1147L326 1148L339 1148L326 1147z"/>
<path style="fill:#a2a2a2; stroke:none;" d="M326 1148L326 1149L339 1149L326 1148z"/>
<path style="fill:#c3c3c3; stroke:none;" d="M850 1148L852 1154C857.474 1154.24 868.891 1160.07 873.338 1155.27C876.143 1152.25 871.192 1150.29 868.995 1149.65C862.718 1147.81 856.467 1148 850 1148z"/>
<path style="fill:#808080; stroke:none;" d="M937 1148L937 1155L938 1155L937 1148z"/>
<path style="fill:#c3c3c3; stroke:none;" d="M831 1153C834.279 1158.95 839.563 1155.66 845 1155C844.314 1146.19 836.318 1149.98 831 1153z"/>
<path style="fill:#fafafa; stroke:none;" d="M337 1194L338 1151C334.983 1151 330.236 1150.15 327.653 1152.03C324.766 1154.13 324.993 1158.84 324.577 1162C323.123 1173.04 326.2 1188.52 337 1194z"/>
<path style="fill:#50af54; stroke:none;" d="M839 1159L868 1160C863.596 1153.28 842.041 1149.81 839 1159z"/>
<path style="fill:#cecece; stroke:none;" d="M877 1155C866.418 1166.2 843.162 1161.02 830 1158C830 1174.39 830.239 1190.67 830.961 1207C831.296 1214.6 830.621 1223.91 836.329 1229.79C845.923 1239.67 864.895 1238 871.722 1225.99C879.913 1211.57 879 1190.98 879 1175C879 1168.46 879.902 1161.04 877 1155z"/>
<path style="fill:#f28770; stroke:none;" d="M454 1160L454 1169L455 1169L454 1160z"/>
<path style="fill:#e79e9e; stroke:none;" d="M338 1162L338 1168L339 1168L338 1162z"/>
<path style="fill:#ff0000; stroke:none;" d="M323 1167L323 1175L324 1175L323 1167z"/>
<path style="fill:#000000; stroke:none;" d="M324 1169L324 1175L325 1175L324 1169z"/>
<path style="fill:#e65f55; stroke:none;" d="M454 1169L454 1181L455 1181L454 1169z"/>
<path style="fill:#e6aaaa; stroke:none;" d="M337 1184L337 1189L338 1189L337 1184z"/>
<path style="fill:#e66968; stroke:none;" d="M328 1185L330 1188L328 1185z"/>
<path style="fill:#db7e7e; stroke:none;" d="M337 1189L336 1196L337 1196L337 1189z"/>
<path style="fill:#f7d0c1; stroke:none;" d="M781 1196L781 1197L800 1195L781 1196z"/>
<path style="fill:#f7d1c3; stroke:none;" d="M455 1196L455 1212L456 1212L456 1198L478 1201L455 1196z"/>
<path style="fill:#e58080; stroke:none;" d="M325.667 1201.33L326.333 1201.67L325.667 1201.33z"/>
<path style="fill:#e06666; stroke:none;" d="M331 1205L334 1207L331 1205z"/>
<path style="fill:#d55959; stroke:none;" d="M335 1208L335 1216L336 1216L335 1208z"/>
<path style="fill:#dbdbdb; stroke:none;" d="M828 1211L828 1220L829 1220L828 1211z"/>
<path style="fill:#c1bfbf; stroke:none;" d="M454 1215L454 1229L455 1229L454 1215z"/>
<path style="fill:#db9090; stroke:none;" d="M335 1216L335 1222L336 1222L335 1216z"/>
<path style="fill:#999999; stroke:none;" d="M936 1217L936 1230L937 1230L936 1217z"/>
<path style="fill:#5a5a5a; stroke:none;" d="M453 1220C432.855 1237.13 405.915 1236.92 381 1235.09C371.873 1234.42 361.91 1234.84 353 1232.62C347.337 1231.21 342.788 1227.24 337 1226C337.083 1236.06 338.689 1244.73 348 1250.27C355.718 1254.86 368.251 1255 377 1255C396.077 1255 415.688 1256.66 434 1250.2C445.535 1246.13 458.726 1233.65 453 1220z"/>
<path style="fill:#b7b7b7; stroke:none;" d="M336 1226L336 1233L337 1233L336 1226z"/>
<path style="fill:#8f3e3e; stroke:none;" d="M349 1231L349 1232L358 1233L349 1231z"/>
<path style="fill:#cfcfcf; stroke:none;" d="M337 1233L337 1237L338 1237L337 1233z"/>
<path style="fill:#a93a3a; stroke:none;" d="M373 1234L373 1235L383 1235L373 1234z"/>
<path style="fill:#bfbfbf; stroke:none;" d="M448 1241C428.945 1259.49 396.37 1256 372 1256L372 1257C391.992 1257 410.518 1257.41 430 1252.76C435.755 1251.39 448.155 1248.31 448 1241z"/>
<path style="fill:#d4d4d4; stroke:none;" d="M340 1244L342 1247L340 1244z"/>
<path style="fill:#808080; stroke:none;" d="M342 1246L346 1249L342 1246z"/>
<path style="fill:#afafaf; stroke:none;" d="M345 1249L348 1251L345 1249z"/>
<path style="fill:#8b8b8b; stroke:none;" d="M353 1252L353 1253L361 1254L353 1252z"/>
<path style="fill:#b9b9b9; stroke:none;" d="M359 1254L359 1255L370 1256L359 1254z"/>
<path style="fill:#848484; stroke:none;" d="M370 1255L370 1256L413 1256C401.775 1251.29 382.219 1255 370 1255z"/>
<path style="fill:#dcdcdc; stroke:none;" d="M613 1255L613 1256L749 1256C738.258 1251.49 719.682 1255 708 1255L613 1255z"/>
<path style="fill:#b9b9b9; stroke:none;" d="M935 1260L935 1269L936 1269L935 1260z"/>
<path style="fill:#666666; stroke:none;" d="M935 1269L935 1272L936 1272L935 1269z"/>
<path style="fill:#808080; stroke:none;" d="M934.333 1285.67L934.667 1286.33L934.333 1285.67M933 1307L934 1308L933 1307z"/>
<path style="fill:#e1e1e1; stroke:none;" d="M930 1312C925.514 1323.47 914.797 1321.38 909 1329L886 1329L886 1330C906.343 1332.57 924.444 1332.76 933 1312L930 1312z"/>
<path style="fill:#ffffff; stroke:none;" d="M931 1314L928 1322C930.957 1320.04 932.186 1317.43 931 1314z"/>
<path style="fill:#bfbfbf; stroke:none;" d="M849 1331L849 1332L859 1330L849 1331z"/>
<path style="fill:#aaaaaa; stroke:none;" d="M900.667 1330.33L901.333 1330.67L900.667 1330.33z"/>
<path style="fill:#808080; stroke:none;" d="M903 1330L903 1331L910 1331L903 1330M911.667 1330.33L912.333 1330.67L911.667 1330.33M343 1331L344 1332L343 1331z"/>
<path style="fill:#aaaaaa; stroke:none;" d="M862 1331L862 1332L870 1332L862 1331M873.667 1331.33L874.333 1331.67L873.667 1331.33z"/>
<path style="fill:#808080; stroke:none;" d="M876 1331L877 1332L876 1331z"/>
<path style="fill:#e2e2e2; stroke:none;" d="M646 1336L691 1336C688.544 1331.55 684.682 1332 680 1332C670.757 1332 652.934 1328.92 646 1336z"/>
<path style="fill:#d8d8d8; stroke:none;" d="M718 1335L739 1334C733.773 1331.75 721.863 1329.8 718 1335z"/>
<path style="fill:#aaaaaa; stroke:none;" d="M819 1332L819 1333L828 1333L819 1332z"/>
<path style="fill:#808080; stroke:none;" d="M829 1332L829 1333L833 1333L829 1332z"/>
<path style="fill:#e3e3e3; stroke:none;" d="M385 1334C392.226 1341.6 407.084 1335.07 416 1335C407.964 1331.53 393.322 1331.54 385 1334z"/>
<path style="fill:#e2e2e2; stroke:none;" d="M468 1337L491 1336C485.99 1331.99 470.81 1330.01 468 1337z"/>
<path style="fill:#dedede; stroke:none;" d="M544 1336L545 1336C552.741 1331 568.712 1341.9 575 1333L561 1335C558.901 1331.36 544.99 1331.38 544 1336z"/>
<path style="fill:#cccccc; stroke:none;" d="M597 1336L606 1333L597 1336z"/>
<path style="fill:#ffffff; stroke:none;" d="M721 1334L721 1335L731 1335L721 1334z"/>
<path style="fill:#aaaaaa; stroke:none;" d="M760.667 1333.33L761.333 1333.67L760.667 1333.33M770 1333L770 1334L773 1334L770 1333M775 1333L775 1334L781 1334L775 1333M784.667 1333.33L785.333 1333.67L784.667 1333.33z"/>
<path style="fill:#808080; stroke:none;" d="M791 1333L792 1334L791 1333M353 1334L354 1335L353 1334z"/>
<path style="fill:#c6c6c6; stroke:none;" d="M526 1334L526 1335L538 1335L526 1334z"/>
<path style="fill:#ffffff; stroke:none;" d="M545 1334L545 1336L556 1336L545 1334M737.667 1334.33L738.333 1334.67L737.667 1334.33z"/>
<path style="fill:#808080; stroke:none;" d="M739 1334L739 1335L749 1335L739 1334z"/>
<path style="fill:#c4c4c4; stroke:none;" d="M377 1337L381 1336L377 1337z"/>
<path style="fill:#c2c2c2; stroke:none;" d="M408 1335L408 1336L419 1336L408 1335z"/>
<path style="fill:#d5d5d5; stroke:none;" d="M426 1336L426 1337L445 1336L426 1336z"/>
<path style="fill:#aaaaaa; stroke:none;" d="M581.667 1335.33L582.333 1335.67L581.667 1335.33M629 1335L629 1336L640 1336L629 1335z"/>
<path style="fill:#ffffff; stroke:none;" d="M678 1335L678 1337L687 1337L678 1335z"/>
<path style="fill:#aaaaaa; stroke:none;" d="M691 1335L691 1336L699 1336L691 1335z"/>
<path style="fill:#808080; stroke:none;" d="M366 1336L367 1337L366 1336z"/>
<path style="fill:#bfbfbf; stroke:none;" d="M451 1336L451 1337L454 1337L451 1336z"/>
<path style="fill:#aaaaaa; stroke:none;" d="M455 1336L455 1337L458 1337L455 1336z"/>
<path style="fill:#808080; stroke:none;" d="M459.667 1336.33L460.333 1336.67L459.667 1336.33z"/>
<path style="fill:#aaaaaa; stroke:none;" d="M474 1336L474 1337L485 1337L474 1336z"/>
<path style="fill:#808080; stroke:none;" d="M486 1336L486 1337L491 1337L486 1336M606.667 1336.33L607.333 1336.67L606.667 1336.33z"/>
<path style="fill:#aaaaaa; stroke:none;" d="M664 1336L664 1337L670 1337L664 1336z"/>
<path style="fill:#808080; stroke:none;" d="M672 1336L673 1337L672 1336M675 1336L675 1337L678 1337L675 1336M384 1337L385 1338L384 1337z"/>
<path style="fill:#aaaaaa; stroke:none;" d="M387 1337L387 1338L402 1338L387 1337z"/>
<path style="fill:#808080; stroke:none;" d="M403.667 1337.33L404.333 1337.67L403.667 1337.33z"/>
</svg>
