<?xml version="1.0"?>
<svg xmlns="http://www.w3.org/2000/svg" id="Layer_1" enable-background="new 0 0 512 512" height="512px" viewBox="0 0 512 512" width="512px" class=""><g><g><path d="m444 64h-109.61c-7.433-36.471-39.756-64-78.39-64s-70.957 27.529-78.39 64h-109.61c-19.851 0-36 16.149-36 36v24c0 18.498 14.026 33.776 32 35.772v296.228c0 30.878 25.122 56 56 56h272c30.878 0 56-25.122 56-56v-296.228c17.974-1.997 32-17.274 32-35.772v-24c0-19.851-16.149-36-36-36zm-188-32c20.858 0 38.643 13.377 45.248 32h-90.496c6.605-18.623 24.39-32 45.248-32zm160 424c0 13.234-10.766 24-24 24h-272c-13.234 0-24-10.766-24-24v-296h320zm32-332c0 2.206-1.794 4-4 4h-12-352-12c-2.206 0-4-1.794-4-4v-24c0-2.206 1.794-4 4-4h376c2.206 0 4 1.794 4 4z" data-original="#000000" class="active-path" data-old_color="#000000" fill="#FFFFFF"/><path d="m388.8 286.4c-5.302-7.07-15.331-8.503-22.4-3.2l-10.464 7.848c-12.522-43.588-52.571-75.048-99.936-75.048-31.146 0-60.382 13.784-80.212 37.817-5.624 6.816-4.657 16.9 2.159 22.524s16.901 4.657 22.524-2.159c13.729-16.639 33.968-26.182 55.529-26.182 32.782 0 60.495 21.764 69.172 51.917l-18.034-3.607c-8.663-1.735-17.094 3.886-18.827 12.552-1.733 8.665 3.887 17.094 12.552 18.827l40 8c1.042.208 2.092.311 3.138.311 3.434 0 6.808-1.106 9.6-3.2l32-24c7.068-5.302 8.501-15.331 3.199-22.4z" data-original="#000000" class="active-path" data-old_color="#000000" fill="#FFFFFF"/><path d="m334.053 363.658c-6.814-5.623-16.899-4.657-22.524 2.159-13.729 16.64-33.968 26.183-55.529 26.183-30.418 0-56.94-19.276-67.325-46.498l13.383 5.353c8.204 3.282 17.516-.709 20.798-8.913 3.282-8.205-.708-17.516-8.913-20.798l-40-16c-5.185-2.075-11.075-1.294-15.542 2.056l-32 24c-7.069 5.302-8.502 15.331-3.2 22.4 3.143 4.191 7.947 6.401 12.812 6.401 3.34 0 6.71-1.042 9.588-3.201l10.505-7.878c5.174 17.93 15.11 34.239 29.038 47.208 19.302 17.972 44.466 27.87 70.856 27.87 31.146 0 60.382-13.784 80.212-37.817 5.623-6.816 4.657-16.901-2.159-22.525z" data-original="#000000" class="active-path" data-old_color="#000000" fill="#FFFFFF"/></g></g> </svg>
